<svg width="20" height="19" viewBox="0 0 20 19" fill="none" xmlns="http://www.w3.org/2000/svg">
<path d="M12.5579 18.0758C11.9674 18.0758 11.3844 17.9073 10.8857 17.5882C6.54331 14.8088 2.91579 10.9649 0.395448 6.47178C-0.285023 5.25866 -0.0721436 3.72327 0.913162 2.738L2.84405 0.807113C3.60217 0.0489962 4.83566 0.0489962 5.59377 0.807113L7.29552 2.50886C8.05364 3.26694 8.05364 4.50047 7.29552 5.25854L6.28938 6.26469C7.73324 8.28276 9.45301 10.0727 11.4111 11.5957L12.522 10.485C13.2801 9.72682 14.5135 9.72686 15.2716 10.485L16.9758 12.1892C17.732 12.9454 17.7336 14.1773 16.9794 14.9354L14.7727 17.1533C14.2729 17.6557 13.6102 17.9763 12.9067 18.0561C12.7905 18.0693 12.674 18.0758 12.5579 18.0758Z" fill="#FFC501"/>
<path d="M17.927 1.12089H11.8695C12.0274 0.937253 12.061 0.667254 11.9331 0.445656C11.7711 0.16514 11.4125 0.06908 11.132 0.231017L9.4546 1.19943C9.27315 1.30417 9.16138 1.49778 9.16138 1.70729C9.16138 1.91681 9.27315 2.11042 9.4546 2.21516L11.132 3.18357C11.2243 3.2369 11.3252 3.26223 11.4247 3.26223C11.6273 3.26223 11.8245 3.15706 11.9331 2.96893C12.061 2.74733 12.0273 2.47737 11.8695 2.29374H17.927C18.423 2.29374 18.8264 2.69717 18.8264 3.19311C18.8264 3.68905 18.423 4.09248 17.927 4.09248H13.1157C12.7918 4.09248 12.5293 4.35505 12.5293 4.67893C12.5293 5.0028 12.7918 5.26537 13.1157 5.26537H17.927C19.0697 5.26537 19.9993 4.33578 19.9993 3.19311C19.9993 2.05048 19.0697 1.12089 17.927 1.12089Z" fill="#FFC501"/>
</svg>
