<svg width="10" height="12" viewBox="0 0 10 12" fill="none" xmlns="http://www.w3.org/2000/svg">
<path d="M1.79567 11.6237H8.21959C8.53891 11.6233 8.84514 11.4963 9.07088 11.2705C9.29672 11.0447 9.42371 10.7385 9.42408 10.4192V6.00275C9.42372 5.68343 9.29673 5.3772 9.07088 5.15146C8.84513 4.92562 8.53888 4.79863 8.21959 4.79826H7.8181V3.19228C7.8181 2.18818 7.28243 1.26036 6.41286 0.758306C5.54329 0.256346 4.47197 0.256346 3.6024 0.758306C2.73283 1.26036 2.19717 2.18818 2.19717 3.19228V4.79826H1.79567C1.47636 4.79862 1.17012 4.92561 0.944388 5.15146C0.718545 5.37722 0.591554 5.68346 0.591187 6.00275V10.4192C0.591545 10.7385 0.718536 11.0447 0.944388 11.2705C1.17014 11.4963 1.47638 11.6233 1.79567 11.6237ZM5.30864 8.81321C5.30864 8.97955 5.17385 9.11434 5.00752 9.11434C4.84118 9.11434 4.7064 8.97955 4.7064 8.81321V7.60873C4.7064 7.4424 4.84118 7.30761 5.00752 7.30761C5.17385 7.30761 5.30864 7.4424 5.30864 7.60873V8.81321ZM3.00016 3.19228C3.00016 2.47505 3.38275 1.81233 4.00389 1.45376C4.62504 1.0952 5.39022 1.0952 6.01137 1.45376C6.63252 1.81233 7.01511 2.47508 7.01511 3.19228V4.79826H3.00016V3.19228Z" fill="#312C21"/>
</svg>
