<svg width="18" height="19" viewBox="0 0 18 19" fill="none" xmlns="http://www.w3.org/2000/svg">
<path d="M12.5579 18.0758C11.9674 18.0758 11.3844 17.9073 10.8857 17.5882C6.54331 14.8088 2.91579 10.9649 0.395448 6.47178C-0.285023 5.25866 -0.0721436 3.72327 0.913162 2.738L2.84405 0.807113C3.60217 0.0489962 4.83566 0.0489962 5.59377 0.807113L7.29552 2.50886C8.05364 3.26694 8.05364 4.50047 7.29552 5.25854L6.28938 6.26469C7.73324 8.28276 9.45301 10.0727 11.4111 11.5957L12.522 10.485C13.2801 9.72682 14.5135 9.72686 15.2716 10.485L16.9758 12.1892C17.732 12.9454 17.7336 14.1773 16.9794 14.9354L14.7727 17.1533C14.2729 17.6557 13.6102 17.9763 12.9067 18.0561C12.7905 18.0693 12.674 18.0758 12.5579 18.0758Z" fill="#312C21"/>
</svg>
