<svg width="52" height="44" viewBox="0 0 52 44" fill="none" xmlns="http://www.w3.org/2000/svg">
<path d="M5.852 42.168L5.322 43.016L5.852 42.168ZM2.108 37.904L1.19702 38.3165L1.20004 38.3231L2.108 37.904ZM2.056 6.236L2.97337 6.6341L2.97602 6.62786L2.056 6.236ZM5.748 1.868L6.278 2.716H6.278L5.748 1.868ZM18.436 1.868L17.8979 2.71096L17.906 2.716L18.436 1.868ZM22.128 6.236L21.208 6.62787L21.2107 6.63409L22.128 6.236ZM22.076 37.904L22.984 38.3231L22.987 38.3165L22.076 37.904ZM18.332 42.168L18.862 43.016L18.332 42.168ZM14.172 35.772L13.355 35.1953L14.172 35.772ZM15.004 33.692L15.9892 33.8633L15.9904 33.8564L15.004 33.692ZM15.004 10.448L14.0117 10.572L14.0143 10.5923L14.0176 10.6124L15.004 10.448ZM14.224 8.316L13.3919 8.8707L13.3993 8.88179L13.407 8.89268L14.224 8.316ZM10.012 8.316L9.20127 7.73047L9.19503 7.73932L10.012 8.316ZM9.18 10.448L8.19361 10.2836L8.19025 10.3037L8.18772 10.324L9.18 10.448ZM9.232 33.692L8.24558 33.8564L8.24679 33.8633L9.232 33.692ZM10.116 35.772L10.9104 35.1646L10.116 35.772ZM12.144 42.728C9.74728 42.728 7.84712 42.2357 6.382 41.32L5.322 43.016C7.18489 44.1803 9.47939 44.728 12.144 44.728V42.728ZM6.382 41.32C4.8851 40.3844 3.76742 39.1131 3.01596 37.4849L1.20004 38.3231C2.11258 40.3002 3.4909 41.8716 5.322 43.016L6.382 41.32ZM3.01895 37.4915C2.25553 35.8056 1.86 33.8358 1.86 31.56H-0.14C-0.14 34.0682 0.296466 36.3277 1.19705 38.3165L3.01895 37.4915ZM1.86 31.56V12.684H-0.14V31.56H1.86ZM1.86 12.684C1.86 10.3291 2.2415 8.32052 2.97334 6.63409L1.13866 5.83791C0.275837 7.82614 -0.14 10.1162 -0.14 12.684H1.86ZM2.97602 6.62786C3.69627 4.93685 4.79434 3.64328 6.278 2.716L5.218 1.02C3.37366 2.17271 2.0104 3.79115 1.13598 5.84414L2.97602 6.62786ZM6.278 2.716C7.73924 1.80272 9.67198 1.308 12.144 1.308V-0.692001C9.41603 -0.692001 7.08476 -0.146723 5.218 1.02L6.278 2.716ZM12.144 1.308C14.5796 1.308 16.474 1.80199 17.898 2.71092L18.974 1.02508C17.1394 -0.145994 14.839 -0.692001 12.144 -0.692001V1.308ZM17.906 2.716C19.3897 3.64328 20.4877 4.93685 21.208 6.62786L23.048 5.84414C22.1736 3.79115 20.8103 2.17271 18.966 1.02L17.906 2.716ZM21.2107 6.63409C21.9425 8.32052 22.324 10.3291 22.324 12.684H24.324C24.324 10.1162 23.9082 7.82614 23.0453 5.83791L21.2107 6.63409ZM22.324 12.684V31.56H24.324V12.684H22.324ZM22.324 31.56C22.324 33.8358 21.9285 35.8056 21.165 37.4915L22.987 38.3165C23.8875 36.3277 24.324 34.0682 24.324 31.56H22.324ZM21.168 37.4849C20.4166 39.1131 19.2989 40.3844 17.802 41.32L18.862 43.016C20.6931 41.8716 22.0714 40.3002 22.984 38.3231L21.168 37.4849ZM17.802 41.32C16.3328 42.2382 14.4653 42.728 12.144 42.728V44.728C14.7454 44.728 17.0032 44.1778 18.862 43.016L17.802 41.32ZM12.144 37.656C13.2979 37.656 14.3314 37.2803 14.989 36.3487L13.355 35.1953C13.1806 35.4424 12.8621 35.656 12.144 35.656V37.656ZM14.989 36.3487C15.5003 35.6243 15.8283 34.7887 15.9892 33.8633L14.0188 33.5207C13.9024 34.19 13.6757 34.741 13.355 35.1953L14.989 36.3487ZM15.9904 33.8564C16.1363 32.9813 16.212 32.1627 16.212 31.404H14.212C14.212 32.032 14.1491 32.7387 14.0176 33.5276L15.9904 33.8564ZM16.212 31.404V12.84H14.212V31.404H16.212ZM16.212 12.84C16.212 12.0168 16.1372 11.1643 15.9904 10.2836L14.0176 10.6124C14.1482 11.3957 14.212 12.1378 14.212 12.84H16.212ZM15.9963 10.324C15.8752 9.35555 15.566 8.48314 15.041 7.73932L13.407 8.89268C13.714 9.32752 13.9248 9.87645 14.0117 10.572L15.9963 10.324ZM15.0561 7.7613C14.4008 6.77844 13.3388 6.38 12.144 6.38V8.38C12.8905 8.38 13.2152 8.60555 13.3919 8.8707L15.0561 7.7613ZM12.144 6.38C10.9456 6.38 9.88868 6.77878 9.20132 7.73051L10.8227 8.90149C11.0367 8.60522 11.4011 8.38 12.144 8.38V6.38ZM9.19503 7.73932C8.67874 8.47073 8.35284 9.32818 8.19361 10.2836L10.1664 10.6124C10.2845 9.90382 10.5133 9.33993 10.829 8.89268L9.19503 7.73932ZM8.18772 10.324C8.07908 11.1931 8.024 12.032 8.024 12.84H10.024C10.024 12.1226 10.0729 11.3669 10.1723 10.572L8.18772 10.324ZM8.024 12.84V31.404H10.024V12.84H8.024ZM8.024 31.404C8.024 32.1627 8.09975 32.9813 8.24561 33.8564L10.2184 33.5276C10.0869 32.7387 10.024 32.032 10.024 31.404H8.024ZM8.24679 33.8633C8.41048 34.8046 8.76449 35.6509 9.32164 36.3794L10.9104 35.1646C10.5662 34.7145 10.3309 34.1741 10.2172 33.5207L8.24679 33.8633ZM9.32164 36.3794C10.0027 37.27 11.0059 37.656 12.144 37.656V35.656C11.4795 35.656 11.1307 35.4526 10.9104 35.1646L9.32164 36.3794ZM28.3664 43H27.3664V44H28.3664V43ZM28.3664 37.332L27.528 36.7869L27.3664 37.0355V37.332H28.3664ZM38.6104 21.576L39.4488 22.1211L39.4499 22.1193L38.6104 21.576ZM40.7424 18.196L39.9021 17.6539L39.8958 17.6636L39.8898 17.6734L40.7424 18.196ZM42.4064 14.92L41.476 14.5535L41.4729 14.5611L41.47 14.5689L42.4064 14.92ZM42.3024 8.212L41.4886 8.79324L41.4954 8.8027L41.5024 8.812L42.3024 8.212ZM37.6744 8.004L38.3815 8.7111L38.3922 8.70039L38.4026 8.68936L37.6744 8.004ZM36.5304 10.24L37.5066 10.4569L36.5304 10.24ZM36.2184 15.284V16.284H37.2184V15.284H36.2184ZM28.3664 15.284H27.3664V16.284H28.3664V15.284ZM29.5104 6.548L28.5854 6.16808L28.5824 6.17519L28.5796 6.18235L29.5104 6.548ZM33.2024 2.024L33.7449 2.86405L33.7492 2.86127L33.2024 2.024ZM48.2304 3.272L48.9502 2.57786L48.2304 3.272ZM50.2584 16.168L51.1975 16.5116L51.2001 16.5043L50.2584 16.168ZM48.1784 20.328L47.3365 19.7883L47.3329 19.794L48.1784 20.328ZM45.4744 24.436L44.6485 23.872L44.6412 23.8829L45.4744 24.436ZM37.3624 36.656L36.5292 36.1029L35.4983 37.656H37.3624V36.656ZM49.8944 36.656H50.8944V35.656H49.8944V36.656ZM49.8944 43V44H50.8944V43H49.8944ZM29.3664 43V37.332H27.3664V43H29.3664ZM29.2048 37.8771L39.4488 22.1211L37.772 21.0309L27.528 36.7869L29.2048 37.8771ZM39.4499 22.1193C40.2165 20.9345 40.9316 19.8009 41.595 18.7186L39.8898 17.6734C39.2358 18.7404 38.5295 19.8602 37.7708 21.0327L39.4499 22.1193ZM41.5827 18.7381C42.3117 17.6081 42.8997 16.4524 43.3427 15.2711L41.47 14.5689C41.081 15.6062 40.5597 16.6345 39.9021 17.6539L41.5827 18.7381ZM43.3368 15.2865C43.8354 14.0208 44.0824 12.6826 44.0824 11.28H42.0824C42.0824 12.4427 41.8787 13.5312 41.476 14.5535L43.3368 15.2865ZM44.0824 11.28C44.0824 9.825 43.8068 8.55126 43.1024 7.612L41.5024 8.812C41.8379 9.2594 42.0824 10.031 42.0824 11.28H44.0824ZM43.1161 7.63076C42.3905 6.6149 41.3279 6.12 40.0664 6.12V8.12C40.7462 8.12 41.1743 8.3531 41.4886 8.79324L43.1161 7.63076ZM40.0664 6.12C38.8337 6.12 37.7401 6.47513 36.9462 7.31863L38.4026 8.68936C38.718 8.35419 39.2191 8.12 40.0664 8.12V6.12ZM36.9673 7.29689C36.251 8.01321 35.7942 8.94287 35.5542 10.0231L37.5066 10.4569C37.6825 9.66513 37.9885 9.10412 38.3815 8.7111L36.9673 7.29689ZM35.5542 10.0231C35.3281 11.0404 35.2184 12.1368 35.2184 13.308H37.2184C37.2184 12.2605 37.3166 11.3116 37.5066 10.4569L35.5542 10.0231ZM35.2184 13.308V15.284H37.2184V13.308H35.2184ZM36.2184 14.284H28.3664V16.284H36.2184V14.284ZM29.3664 15.284V13.204H27.3664V15.284H29.3664ZM29.3664 13.204C29.3664 10.8091 29.7323 8.71805 30.4411 6.91365L28.5796 6.18235C27.7632 8.26061 27.3664 10.6069 27.3664 13.204H29.3664ZM30.4354 6.92792C31.1601 5.16353 32.2628 3.8212 33.7449 2.86404L32.6599 1.18396C30.8139 2.37613 29.4554 4.0498 28.5854 6.16808L30.4354 6.92792ZM33.7492 2.86127C35.2375 1.88929 37.2477 1.36 39.8584 1.36V-0.640003C36.9917 -0.640003 34.5646 -0.0599594 32.6556 1.18673L33.7492 2.86127ZM39.8584 1.36C43.4009 1.36 45.8891 2.28461 47.5105 3.96613L48.9502 2.57786C46.8277 0.376717 43.7345 -0.640003 39.8584 -0.640003V1.36ZM47.5105 3.96613C49.154 5.67045 50.0384 8.11349 50.0384 11.436H52.0384C52.0384 7.75583 51.0508 4.75621 48.9502 2.57786L47.5105 3.96613ZM50.0384 11.436C50.0384 13.0313 49.7945 14.4937 49.3166 15.8317L51.2001 16.5043C51.7623 14.9303 52.0384 13.238 52.0384 11.436H50.0384ZM49.3193 15.8244C48.8259 17.173 48.1661 18.4942 47.3365 19.7883L49.0203 20.8677C49.924 19.4578 50.6509 18.0057 51.1975 16.5116L49.3193 15.8244ZM47.3329 19.794C46.5079 21.1003 45.6132 22.4596 44.6486 23.872L46.3002 25C47.2769 23.5698 48.1849 22.1904 49.0239 20.862L47.3329 19.794ZM44.6412 23.8829L36.5292 36.1029L38.1955 37.2091L46.3075 24.9891L44.6412 23.8829ZM37.3624 37.656H49.8944V35.656H37.3624V37.656ZM48.8944 36.656V43H50.8944V36.656H48.8944ZM49.8944 42H28.3664V44H49.8944V42Z" fill="#312C21"/>
</svg>
