<svg width="51" height="44" viewBox="0 0 51 44" fill="none" xmlns="http://www.w3.org/2000/svg">
<path d="M5.852 42.168L5.322 43.016L5.852 42.168ZM2.108 37.904L1.19702 38.3165L1.20004 38.3231L2.108 37.904ZM2.056 6.236L2.97337 6.6341L2.97602 6.62786L2.056 6.236ZM5.748 1.868L6.278 2.716H6.278L5.748 1.868ZM18.436 1.868L17.8979 2.71096L17.906 2.716L18.436 1.868ZM22.128 6.236L21.208 6.62787L21.2107 6.63409L22.128 6.236ZM22.076 37.904L22.984 38.3231L22.987 38.3165L22.076 37.904ZM18.332 42.168L18.862 43.016L18.332 42.168ZM14.172 35.772L13.355 35.1953L14.172 35.772ZM15.004 33.692L15.9892 33.8633L15.9904 33.8564L15.004 33.692ZM15.004 10.448L14.0117 10.572L14.0143 10.5923L14.0176 10.6124L15.004 10.448ZM14.224 8.316L13.3919 8.8707L13.3993 8.88179L13.407 8.89268L14.224 8.316ZM10.012 8.316L9.20127 7.73047L9.19503 7.73932L10.012 8.316ZM9.18 10.448L8.19361 10.2836L8.19025 10.3037L8.18772 10.324L9.18 10.448ZM9.232 33.692L8.24558 33.8564L8.24679 33.8633L9.232 33.692ZM10.116 35.772L10.9104 35.1646L10.116 35.772ZM12.144 42.728C9.74728 42.728 7.84712 42.2357 6.382 41.32L5.322 43.016C7.18489 44.1803 9.47939 44.728 12.144 44.728V42.728ZM6.382 41.32C4.8851 40.3844 3.76742 39.1131 3.01596 37.4849L1.20004 38.3231C2.11258 40.3002 3.4909 41.8716 5.322 43.016L6.382 41.32ZM3.01895 37.4915C2.25553 35.8056 1.86 33.8358 1.86 31.56H-0.14C-0.14 34.0682 0.296466 36.3277 1.19705 38.3165L3.01895 37.4915ZM1.86 31.56V12.684H-0.14V31.56H1.86ZM1.86 12.684C1.86 10.3291 2.2415 8.32052 2.97334 6.63409L1.13866 5.83791C0.275837 7.82614 -0.14 10.1162 -0.14 12.684H1.86ZM2.97602 6.62786C3.69627 4.93685 4.79434 3.64328 6.278 2.716L5.218 1.02C3.37366 2.17271 2.0104 3.79115 1.13598 5.84414L2.97602 6.62786ZM6.278 2.716C7.73924 1.80272 9.67198 1.308 12.144 1.308V-0.692001C9.41603 -0.692001 7.08476 -0.146723 5.218 1.02L6.278 2.716ZM12.144 1.308C14.5796 1.308 16.474 1.80199 17.898 2.71092L18.974 1.02508C17.1394 -0.145994 14.839 -0.692001 12.144 -0.692001V1.308ZM17.906 2.716C19.3897 3.64328 20.4877 4.93685 21.208 6.62786L23.048 5.84414C22.1736 3.79115 20.8103 2.17271 18.966 1.02L17.906 2.716ZM21.2107 6.63409C21.9425 8.32052 22.324 10.3291 22.324 12.684H24.324C24.324 10.1162 23.9082 7.82614 23.0453 5.83791L21.2107 6.63409ZM22.324 12.684V31.56H24.324V12.684H22.324ZM22.324 31.56C22.324 33.8358 21.9285 35.8056 21.165 37.4915L22.987 38.3165C23.8875 36.3277 24.324 34.0682 24.324 31.56H22.324ZM21.168 37.4849C20.4166 39.1131 19.2989 40.3844 17.802 41.32L18.862 43.016C20.6931 41.8716 22.0714 40.3002 22.984 38.3231L21.168 37.4849ZM17.802 41.32C16.3328 42.2382 14.4653 42.728 12.144 42.728V44.728C14.7454 44.728 17.0032 44.1778 18.862 43.016L17.802 41.32ZM12.144 37.656C13.2979 37.656 14.3314 37.2803 14.989 36.3487L13.355 35.1953C13.1806 35.4424 12.8621 35.656 12.144 35.656V37.656ZM14.989 36.3487C15.5003 35.6243 15.8283 34.7887 15.9892 33.8633L14.0188 33.5207C13.9024 34.19 13.6757 34.741 13.355 35.1953L14.989 36.3487ZM15.9904 33.8564C16.1363 32.9813 16.212 32.1627 16.212 31.404H14.212C14.212 32.032 14.1491 32.7387 14.0176 33.5276L15.9904 33.8564ZM16.212 31.404V12.84H14.212V31.404H16.212ZM16.212 12.84C16.212 12.0168 16.1372 11.1643 15.9904 10.2836L14.0176 10.6124C14.1482 11.3957 14.212 12.1378 14.212 12.84H16.212ZM15.9963 10.324C15.8752 9.35555 15.566 8.48314 15.041 7.73932L13.407 8.89268C13.714 9.32752 13.9248 9.87645 14.0117 10.572L15.9963 10.324ZM15.0561 7.7613C14.4008 6.77844 13.3388 6.38 12.144 6.38V8.38C12.8905 8.38 13.2152 8.60555 13.3919 8.8707L15.0561 7.7613ZM12.144 6.38C10.9456 6.38 9.88868 6.77878 9.20132 7.73051L10.8227 8.90149C11.0367 8.60522 11.4011 8.38 12.144 8.38V6.38ZM9.19503 7.73932C8.67874 8.47073 8.35284 9.32818 8.19361 10.2836L10.1664 10.6124C10.2845 9.90382 10.5133 9.33993 10.829 8.89268L9.19503 7.73932ZM8.18772 10.324C8.07908 11.1931 8.024 12.032 8.024 12.84H10.024C10.024 12.1226 10.0729 11.3669 10.1723 10.572L8.18772 10.324ZM8.024 12.84V31.404H10.024V12.84H8.024ZM8.024 31.404C8.024 32.1627 8.09975 32.9813 8.24561 33.8564L10.2184 33.5276C10.0869 32.7387 10.024 32.032 10.024 31.404H8.024ZM8.24679 33.8633C8.41048 34.8046 8.76449 35.6509 9.32164 36.3794L10.9104 35.1646C10.5662 34.7145 10.3309 34.1741 10.2172 33.5207L8.24679 33.8633ZM9.32164 36.3794C10.0027 37.27 11.0059 37.656 12.144 37.656V35.656C11.4795 35.656 11.1307 35.4526 10.9104 35.1646L9.32164 36.3794ZM32.5784 42.116L33.1457 41.2925L32.5784 42.116ZM29.3544 37.592L28.3929 37.8667L28.3951 37.8746L28.3975 37.8825L29.3544 37.592ZM28.5224 30.78V29.78H27.5224V30.78H28.5224ZM36.2704 30.78H37.2704V29.78H36.2704V30.78ZM36.5304 34.628L35.544 34.7924L35.5466 34.8083L35.5498 34.8241L36.5304 34.628ZM37.5704 36.968L36.8393 37.6503L36.8511 37.6629L36.8633 37.6751L37.5704 36.968ZM39.8584 37.696L39.8928 38.6954L39.8584 37.696ZM42.0424 36.552L42.8926 37.0784H42.8926L42.0424 36.552ZM42.8744 33.432L43.8714 33.5087V33.5087L42.8744 33.432ZM42.7704 24.696L43.7591 24.5462L42.7704 24.696ZM41.7304 21.992L40.9253 22.5852L40.9352 22.5986L40.9455 22.6116L41.7304 21.992ZM37.1024 21.992L36.3764 21.3043L36.3666 21.3146L36.3571 21.3252L37.1024 21.992ZM35.8024 24.8V25.8H36.5996L36.7772 25.0228L35.8024 24.8ZM28.9384 24.8L27.9387 24.7761L27.9142 25.8H28.9384V24.8ZM29.5104 0.879997V-0.120003H28.534L28.5107 0.856091L29.5104 0.879997ZM48.8544 0.879997H49.8544V-0.120003H48.8544V0.879997ZM48.8544 7.796V8.796H49.8544V7.796H48.8544ZM36.1144 7.796V6.796H35.1634L35.1156 7.74578L36.1144 7.796ZM35.6464 17.104L34.6476 17.0538L34.4921 20.1476L36.4272 17.7287L35.6464 17.104ZM37.7264 15.752L37.3717 14.8169L37.3607 14.8212L37.7264 15.752ZM40.9504 15.076L41.0109 16.0742L41.028 16.0731L41.0452 16.0715L40.9504 15.076ZM46.3584 16.324L45.7678 17.1311L45.7771 17.1377L46.3584 16.324ZM49.5824 20.952L48.6353 21.273L48.637 21.278L49.5824 20.952ZM50.2064 34.524L51.1956 34.6705L51.196 34.6679L50.2064 34.524ZM48.5944 39.412L49.4558 39.92L49.4613 39.9105L48.5944 39.412ZM45.1624 42.584L45.6179 43.4742L45.1624 42.584ZM39.3384 42.728C36.4899 42.728 34.4697 42.2046 33.1457 41.2925L32.0111 42.9395C33.8071 44.1768 36.2935 44.728 39.3384 44.728V42.728ZM33.1457 41.2925C31.7858 40.3557 30.8398 39.0427 30.3113 37.3015L28.3975 37.8825C29.0476 40.024 30.2509 41.727 32.0111 42.9395L33.1457 41.2925ZM30.3159 37.3173C29.7929 35.4867 29.5224 33.3123 29.5224 30.78H27.5224C27.5224 33.4477 27.8066 35.8147 28.3929 37.8667L30.3159 37.3173ZM28.5224 31.78H36.2704V29.78H28.5224V31.78ZM35.2704 30.78C35.2704 32.3384 35.3586 33.6799 35.544 34.7924L37.5168 34.4636C37.3555 33.4961 37.2704 32.2723 37.2704 30.78H35.2704ZM35.5498 34.8241C35.7775 35.9627 36.1796 36.9435 36.8393 37.6503L38.3014 36.2857C37.9905 35.9525 37.6992 35.3733 37.511 34.4319L35.5498 34.8241ZM36.8633 37.6751C37.6431 38.455 38.716 38.736 39.8928 38.6954L39.8239 36.6966C38.9901 36.7253 38.5376 36.521 38.2775 36.2609L36.8633 37.6751ZM39.8928 38.6954C41.1645 38.6516 42.2333 38.1434 42.8926 37.0784L41.1921 36.0256C40.9501 36.4166 40.5629 36.6711 39.8239 36.6966L39.8928 38.6954ZM42.8926 37.0784C43.4627 36.1575 43.7616 34.9366 43.8714 33.5087L41.8773 33.3553C41.7792 34.6314 41.5234 35.4905 41.1921 36.0256L42.8926 37.0784ZM43.8714 33.5087C43.9779 32.1241 44.0304 30.5026 44.0304 28.648H42.0304C42.0304 30.468 41.9788 32.0359 41.8773 33.3553L43.8714 33.5087ZM44.0304 28.648C44.0304 27.1207 43.9417 25.7515 43.7591 24.5462L41.7817 24.8458C41.9457 25.9285 42.0304 27.194 42.0304 28.648H44.0304ZM43.7591 24.5462C43.5692 23.2926 43.176 22.2093 42.5153 21.3724L40.9455 22.6116C41.3248 23.0921 41.6249 23.8114 41.7817 24.8458L43.7591 24.5462ZM42.5354 21.3988C41.8114 20.4162 40.7048 20.004 39.4424 20.004V22.004C40.26 22.004 40.6786 22.2504 40.9253 22.5852L42.5354 21.3988ZM39.4424 20.004C38.2416 20.004 37.1959 20.4392 36.3764 21.3043L37.8283 22.6797C38.2568 22.2274 38.7712 22.004 39.4424 22.004V20.004ZM36.3571 21.3252C35.6182 22.1511 35.128 23.2624 34.8275 24.5772L36.7772 25.0228C37.0314 23.9109 37.4079 23.1502 37.8476 22.6588L36.3571 21.3252ZM35.8024 23.8H28.9384V25.8H35.8024V23.8ZM29.9381 24.8239L30.5101 0.903902L28.5107 0.856091L27.9387 24.7761L29.9381 24.8239ZM29.5104 1.88H48.8544V-0.120003H29.5104V1.88ZM47.8544 0.879997V7.796H49.8544V0.879997H47.8544ZM48.8544 6.796H36.1144V8.796H48.8544V6.796ZM35.1156 7.74578L34.6476 17.0538L36.6451 17.1542L37.1131 7.84621L35.1156 7.74578ZM36.4272 17.7287C36.6889 17.4016 37.2003 17.0331 38.092 16.6827L37.3607 14.8212C36.3111 15.2336 35.4359 15.7664 34.8655 16.4793L36.4272 17.7287ZM38.081 16.687C38.986 16.3437 39.9609 16.1378 41.0109 16.0742L40.8899 14.0778C39.6518 14.1529 38.4774 14.3976 37.3717 14.817L38.081 16.687ZM41.0452 16.0715C43.0476 15.8808 44.5894 16.2687 45.7679 17.131L46.9489 15.517C45.2847 14.2993 43.2211 13.8552 40.8556 14.0805L41.0452 16.0715ZM45.7771 17.1377C47.0297 18.0324 47.995 19.3842 48.6353 21.273L50.5294 20.631C49.783 18.4291 48.599 16.6956 46.9396 15.5103L45.7771 17.1377ZM48.637 21.278C49.2836 23.153 49.6224 25.4969 49.6224 28.336H51.6224C51.6224 25.3511 51.2679 22.7723 50.5277 20.626L48.637 21.278ZM49.6224 28.336C49.6224 30.5135 49.4862 32.5276 49.2168 34.3801L51.196 34.6679C51.4812 32.7071 51.6224 30.5958 51.6224 28.336H49.6224ZM49.2172 34.3774C48.9549 36.1478 48.452 37.6534 47.7275 38.9135L49.4613 39.9105C50.3314 38.3973 50.9032 36.6442 51.1956 34.6705L49.2172 34.3774ZM47.733 38.904C47.0385 40.0817 46.0405 41.0114 44.7069 41.6938L45.6179 43.4742C47.2655 42.6312 48.5556 41.4463 49.4557 39.92L47.733 38.904ZM44.7069 41.6938C43.4045 42.3601 41.6354 42.728 39.3384 42.728V44.728C41.8253 44.728 43.9389 44.3332 45.6179 43.4742L44.7069 41.6938Z" fill="#312C21"/>
</svg>
