<svg width="52" height="44" viewBox="0 0 52 44" fill="none" xmlns="http://www.w3.org/2000/svg">
<path d="M5.852 42.168L5.322 43.016L5.852 42.168ZM2.108 37.904L1.19702 38.3165L1.20004 38.3231L2.108 37.904ZM2.056 6.236L2.97337 6.6341L2.97602 6.62786L2.056 6.236ZM5.748 1.868L6.278 2.716H6.278L5.748 1.868ZM18.436 1.868L17.8979 2.71096L17.906 2.716L18.436 1.868ZM22.128 6.236L21.208 6.62787L21.2107 6.63409L22.128 6.236ZM22.076 37.904L22.984 38.3231L22.987 38.3165L22.076 37.904ZM18.332 42.168L18.862 43.016L18.332 42.168ZM14.172 35.772L13.355 35.1953L14.172 35.772ZM15.004 33.692L15.9892 33.8633L15.9904 33.8564L15.004 33.692ZM15.004 10.448L14.0117 10.572L14.0143 10.5923L14.0176 10.6124L15.004 10.448ZM14.224 8.316L13.3919 8.8707L13.3993 8.88179L13.407 8.89268L14.224 8.316ZM10.012 8.316L9.20127 7.73047L9.19503 7.73932L10.012 8.316ZM9.18 10.448L8.19361 10.2836L8.19025 10.3037L8.18772 10.324L9.18 10.448ZM9.232 33.692L8.24558 33.8564L8.24679 33.8633L9.232 33.692ZM10.116 35.772L10.9104 35.1646L10.116 35.772ZM12.144 42.728C9.74728 42.728 7.84712 42.2357 6.382 41.32L5.322 43.016C7.18489 44.1803 9.47939 44.728 12.144 44.728V42.728ZM6.382 41.32C4.8851 40.3844 3.76742 39.1131 3.01596 37.4849L1.20004 38.3231C2.11258 40.3002 3.4909 41.8716 5.322 43.016L6.382 41.32ZM3.01895 37.4915C2.25553 35.8056 1.86 33.8358 1.86 31.56H-0.14C-0.14 34.0682 0.296466 36.3277 1.19705 38.3165L3.01895 37.4915ZM1.86 31.56V12.684H-0.14V31.56H1.86ZM1.86 12.684C1.86 10.3291 2.2415 8.32052 2.97334 6.63409L1.13866 5.83791C0.275837 7.82614 -0.14 10.1162 -0.14 12.684H1.86ZM2.97602 6.62786C3.69627 4.93685 4.79434 3.64328 6.278 2.716L5.218 1.02C3.37366 2.17271 2.0104 3.79115 1.13598 5.84414L2.97602 6.62786ZM6.278 2.716C7.73924 1.80272 9.67198 1.308 12.144 1.308V-0.692001C9.41603 -0.692001 7.08476 -0.146723 5.218 1.02L6.278 2.716ZM12.144 1.308C14.5796 1.308 16.474 1.80199 17.898 2.71092L18.974 1.02508C17.1394 -0.145994 14.839 -0.692001 12.144 -0.692001V1.308ZM17.906 2.716C19.3897 3.64328 20.4877 4.93685 21.208 6.62786L23.048 5.84414C22.1736 3.79115 20.8103 2.17271 18.966 1.02L17.906 2.716ZM21.2107 6.63409C21.9425 8.32052 22.324 10.3291 22.324 12.684H24.324C24.324 10.1162 23.9082 7.82614 23.0453 5.83791L21.2107 6.63409ZM22.324 12.684V31.56H24.324V12.684H22.324ZM22.324 31.56C22.324 33.8358 21.9285 35.8056 21.165 37.4915L22.987 38.3165C23.8875 36.3277 24.324 34.0682 24.324 31.56H22.324ZM21.168 37.4849C20.4166 39.1131 19.2989 40.3844 17.802 41.32L18.862 43.016C20.6931 41.8716 22.0714 40.3002 22.984 38.3231L21.168 37.4849ZM17.802 41.32C16.3328 42.2382 14.4653 42.728 12.144 42.728V44.728C14.7454 44.728 17.0032 44.1778 18.862 43.016L17.802 41.32ZM12.144 37.656C13.2979 37.656 14.3314 37.2803 14.989 36.3487L13.355 35.1953C13.1806 35.4424 12.8621 35.656 12.144 35.656V37.656ZM14.989 36.3487C15.5003 35.6243 15.8283 34.7887 15.9892 33.8633L14.0188 33.5207C13.9024 34.19 13.6757 34.741 13.355 35.1953L14.989 36.3487ZM15.9904 33.8564C16.1363 32.9813 16.212 32.1627 16.212 31.404H14.212C14.212 32.032 14.1491 32.7387 14.0176 33.5276L15.9904 33.8564ZM16.212 31.404V12.84H14.212V31.404H16.212ZM16.212 12.84C16.212 12.0168 16.1372 11.1643 15.9904 10.2836L14.0176 10.6124C14.1482 11.3957 14.212 12.1378 14.212 12.84H16.212ZM15.9963 10.324C15.8752 9.35555 15.566 8.48314 15.041 7.73932L13.407 8.89268C13.714 9.32752 13.9248 9.87645 14.0117 10.572L15.9963 10.324ZM15.0561 7.7613C14.4008 6.77844 13.3388 6.38 12.144 6.38V8.38C12.8905 8.38 13.2152 8.60555 13.3919 8.8707L15.0561 7.7613ZM12.144 6.38C10.9456 6.38 9.88868 6.77878 9.20132 7.73051L10.8227 8.90149C11.0367 8.60522 11.4011 8.38 12.144 8.38V6.38ZM9.19503 7.73932C8.67874 8.47073 8.35284 9.32818 8.19361 10.2836L10.1664 10.6124C10.2845 9.90382 10.5133 9.33993 10.829 8.89268L9.19503 7.73932ZM8.18772 10.324C8.07908 11.1931 8.024 12.032 8.024 12.84H10.024C10.024 12.1226 10.0729 11.3669 10.1723 10.572L8.18772 10.324ZM8.024 12.84V31.404H10.024V12.84H8.024ZM8.024 31.404C8.024 32.1627 8.09975 32.9813 8.24561 33.8564L10.2184 33.5276C10.0869 32.7387 10.024 32.032 10.024 31.404H8.024ZM8.24679 33.8633C8.41048 34.8046 8.76449 35.6509 9.32164 36.3794L10.9104 35.1646C10.5662 34.7145 10.3309 34.1741 10.2172 33.5207L8.24679 33.8633ZM9.32164 36.3794C10.0027 37.27 11.0059 37.656 12.144 37.656V35.656C11.4795 35.656 11.1307 35.4526 10.9104 35.1646L9.32164 36.3794ZM33.8264 41.804L33.2372 42.612L33.2467 42.6189L33.2563 42.6256L33.8264 41.804ZM30.1344 36.864L29.1955 37.2083L29.198 37.2151L29.2006 37.2219L30.1344 36.864ZM29.9264 7.38L28.969 7.09126L28.9669 7.09825L28.9649 7.10528L29.9264 7.38ZM46.5144 1.608L46.0355 2.48589L46.0473 2.49232L46.0593 2.49843L46.5144 1.608ZM49.8944 5.196L48.9773 5.59472L49.8944 5.196ZM50.9344 11.436H49.9344V11.5983L49.9857 11.7522L50.9344 11.436ZM50.9864 11.748V12.748H51.9864V11.748H50.9864ZM43.3944 11.748H42.3944V12.748H43.3944V11.748ZM42.8744 7.796L43.8029 7.42461V7.42461L42.8744 7.796ZM38.4024 7.276L37.6713 6.59368L37.6588 6.60715L37.6467 6.62107L38.4024 7.276ZM37.4144 9.928L36.428 9.7636L36.4261 9.77507L36.4244 9.78658L37.4144 9.928ZM37.1544 19.288H36.1544V22.946L38.0153 19.7967L37.1544 19.288ZM39.2344 17.52L38.8404 16.6008L38.8282 16.6062L39.2344 17.52ZM42.5624 16.844L42.5901 17.8436L42.5936 17.8435L42.5624 16.844ZM47.8664 18.352L47.2342 19.1269L47.2453 19.1359L47.2567 19.1446L47.8664 18.352ZM50.7784 22.72L49.8245 23.0203L49.8262 23.0254L50.7784 22.72ZM50.6224 36.552L49.6679 36.2537L50.6224 36.552ZM47.0864 41.752L47.6836 42.554L47.6864 42.552L47.0864 41.752ZM42.4064 36.708L41.612 36.1006L41.6004 36.1157L41.5894 36.1313L42.4064 36.708ZM43.2904 34.212L42.3031 34.0528L42.3006 34.0684L42.2986 34.084L43.2904 34.212ZM43.3944 26.516L42.3963 26.5784L42.3974 26.5954L42.399 26.6123L43.3944 26.516ZM42.6144 23.916L43.4251 23.3305L42.6144 23.916ZM38.9744 23.292L39.359 24.2151L39.3764 24.2078L39.3934 24.2L38.9744 23.292ZM37.8824 24.02L38.5467 24.7674L38.5687 24.7479L38.5895 24.7271L37.8824 24.02ZM37.1544 24.904L36.2802 24.4184L36.1544 24.6449V24.904H37.1544ZM37.4144 34.576L36.4311 34.7581L36.4351 34.7796L36.44 34.8009L37.4144 34.576ZM40.3784 42.572C37.8538 42.572 35.885 42.0153 34.3965 40.9824L33.2563 42.6256C35.1651 43.9501 37.5643 44.572 40.3784 44.572V42.572ZM34.4155 40.996C32.9202 39.9056 31.8023 38.4213 31.0681 36.5061L29.2006 37.2219C30.0611 39.4667 31.4046 41.2757 33.2372 42.612L34.4155 40.996ZM31.0732 36.5197C30.3584 34.57 29.9904 32.3153 29.9904 29.74H27.9904C27.9904 32.5034 28.3851 34.998 29.1955 37.2083L31.0732 36.5197ZM29.9904 29.74V14.764H27.9904V29.74H29.9904ZM29.9904 14.764C29.9904 12.0998 30.294 9.73326 30.8879 7.65472L28.9649 7.10528C28.3107 9.39474 27.9904 11.9508 27.9904 14.764H29.9904ZM30.8838 7.66874C31.4889 5.66214 32.5221 4.13218 33.9665 3.02588L32.7503 1.43812C30.936 2.82782 29.6811 4.72985 28.969 7.09126L30.8838 7.66874ZM33.9665 3.02588C35.3562 1.96138 37.4311 1.36 40.3264 1.36V-0.640003C37.1897 -0.640003 34.6192 0.00661087 32.7503 1.43812L33.9665 3.02588ZM40.3264 1.36C42.8357 1.36 44.7122 1.76406 46.0355 2.48589L46.9932 0.730101C45.2659 -0.21207 43.0171 -0.640003 40.3264 -0.640003V1.36ZM46.0593 2.49843C47.4147 3.19119 48.3771 4.21427 48.9773 5.59472L50.8114 4.79727C50.025 2.9884 48.7341 1.61947 46.9695 0.717562L46.0593 2.49843ZM48.9773 5.59472C49.6009 7.02894 49.9344 8.8429 49.9344 11.072H51.9344C51.9344 8.65576 51.5745 6.55239 50.8114 4.79727L48.9773 5.59472ZM49.9344 11.072C49.9344 11.0722 49.9344 11.0724 49.9344 11.0726C49.9344 11.0728 49.9344 11.073 49.9344 11.0732C49.9344 11.0734 49.9344 11.0736 49.9344 11.0738C49.9344 11.074 49.9344 11.0742 49.9344 11.0744C49.9344 11.0746 49.9344 11.0748 49.9344 11.0751C49.9344 11.0753 49.9344 11.0755 49.9344 11.0757C49.9344 11.0759 49.9344 11.0761 49.9344 11.0763C49.9344 11.0765 49.9344 11.0767 49.9344 11.0769C49.9344 11.0771 49.9344 11.0773 49.9344 11.0775C49.9344 11.0777 49.9344 11.0779 49.9344 11.0781C49.9344 11.0783 49.9344 11.0785 49.9344 11.0787C49.9344 11.0789 49.9344 11.0791 49.9344 11.0793C49.9344 11.0795 49.9344 11.0798 49.9344 11.08C49.9344 11.0802 49.9344 11.0804 49.9344 11.0806C49.9344 11.0808 49.9344 11.081 49.9344 11.0812C49.9344 11.0814 49.9344 11.0816 49.9344 11.0818C49.9344 11.082 49.9344 11.0822 49.9344 11.0824C49.9344 11.0826 49.9344 11.0828 49.9344 11.083C49.9344 11.0832 49.9344 11.0834 49.9344 11.0836C49.9344 11.0839 49.9344 11.0841 49.9344 11.0843C49.9344 11.0845 49.9344 11.0847 49.9344 11.0849C49.9344 11.0851 49.9344 11.0853 49.9344 11.0855C49.9344 11.0857 49.9344 11.0859 49.9344 11.0861C49.9344 11.0863 49.9344 11.0865 49.9344 11.0867C49.9344 11.0869 49.9344 11.0872 49.9344 11.0874C49.9344 11.0876 49.9344 11.0878 49.9344 11.088C49.9344 11.0882 49.9344 11.0884 49.9344 11.0886C49.9344 11.0888 49.9344 11.089 49.9344 11.0892C49.9344 11.0894 49.9344 11.0896 49.9344 11.0898C49.9344 11.09 49.9344 11.0903 49.9344 11.0905C49.9344 11.0907 49.9344 11.0909 49.9344 11.0911C49.9344 11.0913 49.9344 11.0915 49.9344 11.0917C49.9344 11.0919 49.9344 11.0921 49.9344 11.0923C49.9344 11.0925 49.9344 11.0927 49.9344 11.0929C49.9344 11.0932 49.9344 11.0934 49.9344 11.0936C49.9344 11.0938 49.9344 11.094 49.9344 11.0942C49.9344 11.0944 49.9344 11.0946 49.9344 11.0948C49.9344 11.095 49.9344 11.0952 49.9344 11.0954C49.9344 11.0956 49.9344 11.0959 49.9344 11.0961C49.9344 11.0963 49.9344 11.0965 49.9344 11.0967C49.9344 11.0969 49.9344 11.0971 49.9344 11.0973C49.9344 11.0975 49.9344 11.0977 49.9344 11.0979C49.9344 11.0982 49.9344 11.0984 49.9344 11.0986C49.9344 11.0988 49.9344 11.099 49.9344 11.0992C49.9344 11.0994 49.9344 11.0996 49.9344 11.0998C49.9344 11.1 49.9344 11.1002 49.9344 11.1005C49.9344 11.1007 49.9344 11.1009 49.9344 11.1011C49.9344 11.1013 49.9344 11.1015 49.9344 11.1017C49.9344 11.1019 49.9344 11.1021 49.9344 11.1023C49.9344 11.1025 49.9344 11.1028 49.9344 11.103C49.9344 11.1032 49.9344 11.1034 49.9344 11.1036C49.9344 11.1038 49.9344 11.104 49.9344 11.1042C49.9344 11.1044 49.9344 11.1046 49.9344 11.1049C49.9344 11.1051 49.9344 11.1053 49.9344 11.1055C49.9344 11.1057 49.9344 11.1059 49.9344 11.1061C49.9344 11.1063 49.9344 11.1065 49.9344 11.1067C49.9344 11.107 49.9344 11.1072 49.9344 11.1074C49.9344 11.1076 49.9344 11.1078 49.9344 11.108C49.9344 11.1082 49.9344 11.1084 49.9344 11.1086C49.9344 11.1089 49.9344 11.1091 49.9344 11.1093C49.9344 11.1095 49.9344 11.1097 49.9344 11.1099C49.9344 11.1101 49.9344 11.1103 49.9344 11.1105C49.9344 11.1108 49.9344 11.111 49.9344 11.1112C49.9344 11.1114 49.9344 11.1116 49.9344 11.1118C49.9344 11.112 49.9344 11.1122 49.9344 11.1124C49.9344 11.1127 49.9344 11.1129 49.9344 11.1131C49.9344 11.1133 49.9344 11.1135 49.9344 11.1137C49.9344 11.1139 49.9344 11.1141 49.9344 11.1144C49.9344 11.1146 49.9344 11.1148 49.9344 11.115C49.9344 11.1152 49.9344 11.1154 49.9344 11.1156C49.9344 11.1158 49.9344 11.1161 49.9344 11.1163C49.9344 11.1165 49.9344 11.1167 49.9344 11.1169C49.9344 11.1171 49.9344 11.1173 49.9344 11.1175C49.9344 11.1178 49.9344 11.118 49.9344 11.1182C49.9344 11.1184 49.9344 11.1186 49.9344 11.1188C49.9344 11.119 49.9344 11.1192 49.9344 11.1195C49.9344 11.1197 49.9344 11.1199 49.9344 11.1201C49.9344 11.1203 49.9344 11.1205 49.9344 11.1207C49.9344 11.121 49.9344 11.1212 49.9344 11.1214C49.9344 11.1216 49.9344 11.1218 49.9344 11.122C49.9344 11.1222 49.9344 11.1224 49.9344 11.1227C49.9344 11.1229 49.9344 11.1231 49.9344 11.1233C49.9344 11.1235 49.9344 11.1237 49.9344 11.1239C49.9344 11.1242 49.9344 11.1244 49.9344 11.1246C49.9344 11.1248 49.9344 11.125 49.9344 11.1252C49.9344 11.1254 49.9344 11.1257 49.9344 11.1259C49.9344 11.1261 49.9344 11.1263 49.9344 11.1265C49.9344 11.1267 49.9344 11.1269 49.9344 11.1272C49.9344 11.1274 49.9344 11.1276 49.9344 11.1278C49.9344 11.128 49.9344 11.1282 49.9344 11.1285C49.9344 11.1287 49.9344 11.1289 49.9344 11.1291C49.9344 11.1293 49.9344 11.1295 49.9344 11.1297C49.9344 11.13 49.9344 11.1302 49.9344 11.1304C49.9344 11.1306 49.9344 11.1308 49.9344 11.131C49.9344 11.1312 49.9344 11.1315 49.9344 11.1317C49.9344 11.1319 49.9344 11.1321 49.9344 11.1323C49.9344 11.1325 49.9344 11.1328 49.9344 11.133C49.9344 11.1332 49.9344 11.1334 49.9344 11.1336C49.9344 11.1338 49.9344 11.1341 49.9344 11.1343C49.9344 11.1345 49.9344 11.1347 49.9344 11.1349C49.9344 11.1351 49.9344 11.1354 49.9344 11.1356C49.9344 11.1358 49.9344 11.136 49.9344 11.1362C49.9344 11.1364 49.9344 11.1367 49.9344 11.1369C49.9344 11.1371 49.9344 11.1373 49.9344 11.1375C49.9344 11.1377 49.9344 11.138 49.9344 11.1382C49.9344 11.1384 49.9344 11.1386 49.9344 11.1388C49.9344 11.139 49.9344 11.1393 49.9344 11.1395C49.9344 11.1397 49.9344 11.1399 49.9344 11.1401C49.9344 11.1403 49.9344 11.1406 49.9344 11.1408C49.9344 11.141 49.9344 11.1412 49.9344 11.1414C49.9344 11.1416 49.9344 11.1419 49.9344 11.1421C49.9344 11.1423 49.9344 11.1425 49.9344 11.1427C49.9344 11.143 49.9344 11.1432 49.9344 11.1434C49.9344 11.1436 49.9344 11.1438 49.9344 11.144C49.9344 11.1443 49.9344 11.1445 49.9344 11.1447C49.9344 11.1449 49.9344 11.1451 49.9344 11.1454C49.9344 11.1456 49.9344 11.1458 49.9344 11.146C49.9344 11.1462 49.9344 11.1464 49.9344 11.1467C49.9344 11.1469 49.9344 11.1471 49.9344 11.1473C49.9344 11.1475 49.9344 11.1478 49.9344 11.148C49.9344 11.1482 49.9344 11.1484 49.9344 11.1486C49.9344 11.1489 49.9344 11.1491 49.9344 11.1493C49.9344 11.1495 49.9344 11.1497 49.9344 11.15C49.9344 11.1502 49.9344 11.1504 49.9344 11.1506C49.9344 11.1508 49.9344 11.1511 49.9344 11.1513C49.9344 11.1515 49.9344 11.1517 49.9344 11.1519C49.9344 11.1521 49.9344 11.1524 49.9344 11.1526C49.9344 11.1528 49.9344 11.153 49.9344 11.1532C49.9344 11.1535 49.9344 11.1537 49.9344 11.1539C49.9344 11.1541 49.9344 11.1544 49.9344 11.1546C49.9344 11.1548 49.9344 11.155 49.9344 11.1552C49.9344 11.1555 49.9344 11.1557 49.9344 11.1559C49.9344 11.1561 49.9344 11.1563 49.9344 11.1566C49.9344 11.1568 49.9344 11.157 49.9344 11.1572C49.9344 11.1574 49.9344 11.1577 49.9344 11.1579C49.9344 11.1581 49.9344 11.1583 49.9344 11.1585C49.9344 11.1588 49.9344 11.159 49.9344 11.1592C49.9344 11.1594 49.9344 11.1596 49.9344 11.1599C49.9344 11.1601 49.9344 11.1603 49.9344 11.1605C49.9344 11.1608 49.9344 11.161 49.9344 11.1612C49.9344 11.1614 49.9344 11.1616 49.9344 11.1619C49.9344 11.1621 49.9344 11.1623 49.9344 11.1625C49.9344 11.1628 49.9344 11.163 49.9344 11.1632C49.9344 11.1634 49.9344 11.1636 49.9344 11.1639C49.9344 11.1641 49.9344 11.1643 49.9344 11.1645C49.9344 11.1648 49.9344 11.165 49.9344 11.1652C49.9344 11.1654 49.9344 11.1656 49.9344 11.1659C49.9344 11.1661 49.9344 11.1663 49.9344 11.1665C49.9344 11.1668 49.9344 11.167 49.9344 11.1672C49.9344 11.1674 49.9344 11.1676 49.9344 11.1679C49.9344 11.1681 49.9344 11.1683 49.9344 11.1685C49.9344 11.1688 49.9344 11.169 49.9344 11.1692C49.9344 11.1694 49.9344 11.1697 49.9344 11.1699C49.9344 11.1701 49.9344 11.1703 49.9344 11.1705C49.9344 11.1708 49.9344 11.171 49.9344 11.1712C49.9344 11.1714 49.9344 11.1717 49.9344 11.1719C49.9344 11.1721 49.9344 11.1723 49.9344 11.1726C49.9344 11.1728 49.9344 11.173 49.9344 11.1732C49.9344 11.1735 49.9344 11.1737 49.9344 11.1739C49.9344 11.1741 49.9344 11.1744 49.9344 11.1746C49.9344 11.1748 49.9344 11.175 49.9344 11.1753C49.9344 11.1755 49.9344 11.1757 49.9344 11.1759C49.9344 11.1761 49.9344 11.1764 49.9344 11.1766C49.9344 11.1768 49.9344 11.177 49.9344 11.1773C49.9344 11.1775 49.9344 11.1777 49.9344 11.1779C49.9344 11.1782 49.9344 11.1784 49.9344 11.1786C49.9344 11.1788 49.9344 11.1791 49.9344 11.1793C49.9344 11.1795 49.9344 11.1797 49.9344 11.18C49.9344 11.1802 49.9344 11.1804 49.9344 11.1806C49.9344 11.1809 49.9344 11.1811 49.9344 11.1813C49.9344 11.1816 49.9344 11.1818 49.9344 11.182C49.9344 11.1822 49.9344 11.1825 49.9344 11.1827C49.9344 11.1829 49.9344 11.1831 49.9344 11.1834C49.9344 11.1836 49.9344 11.1838 49.9344 11.184C49.9344 11.1843 49.9344 11.1845 49.9344 11.1847C49.9344 11.1849 49.9344 11.1852 49.9344 11.1854C49.9344 11.1856 49.9344 11.1858 49.9344 11.1861C49.9344 11.1863 49.9344 11.1865 49.9344 11.1868C49.9344 11.187 49.9344 11.1872 49.9344 11.1874C49.9344 11.1877 49.9344 11.1879 49.9344 11.1881C49.9344 11.1883 49.9344 11.1886 49.9344 11.1888C49.9344 11.189 49.9344 11.1892 49.9344 11.1895C49.9344 11.1897 49.9344 11.1899 49.9344 11.1902C49.9344 11.1904 49.9344 11.1906 49.9344 11.1908C49.9344 11.1911 49.9344 11.1913 49.9344 11.1915C49.9344 11.1917 49.9344 11.192 49.9344 11.1922C49.9344 11.1924 49.9344 11.1927 49.9344 11.1929C49.9344 11.1931 49.9344 11.1933 49.9344 11.1936C49.9344 11.1938 49.9344 11.194 49.9344 11.1943C49.9344 11.1945 49.9344 11.1947 49.9344 11.1949C49.9344 11.1952 49.9344 11.1954 49.9344 11.1956C49.9344 11.1959 49.9344 11.1961 49.9344 11.1963C49.9344 11.1965 49.9344 11.1968 49.9344 11.197C49.9344 11.1972 49.9344 11.1975 49.9344 11.1977C49.9344 11.1979 49.9344 11.1981 49.9344 11.1984C49.9344 11.1986 49.9344 11.1988 49.9344 11.1991C49.9344 11.1993 49.9344 11.1995 49.9344 11.1997C49.9344 11.2 49.9344 11.2002 49.9344 11.2004C49.9344 11.2007 49.9344 11.2009 49.9344 11.2011C49.9344 11.2013 49.9344 11.2016 49.9344 11.2018C49.9344 11.202 49.9344 11.2023 49.9344 11.2025C49.9344 11.2027 49.9344 11.203 49.9344 11.2032C49.9344 11.2034 49.9344 11.2036 49.9344 11.2039C49.9344 11.2041 49.9344 11.2043 49.9344 11.2046C49.9344 11.2048 49.9344 11.205 49.9344 11.2053C49.9344 11.2055 49.9344 11.2057 49.9344 11.2059C49.9344 11.2062 49.9344 11.2064 49.9344 11.2066C49.9344 11.2069 49.9344 11.2071 49.9344 11.2073C49.9344 11.2076 49.9344 11.2078 49.9344 11.208C49.9344 11.2083 49.9344 11.2085 49.9344 11.2087C49.9344 11.2089 49.9344 11.2092 49.9344 11.2094C49.9344 11.2096 49.9344 11.2099 49.9344 11.2101C49.9344 11.2103 49.9344 11.2106 49.9344 11.2108C49.9344 11.211 49.9344 11.2113 49.9344 11.2115C49.9344 11.2117 49.9344 11.212 49.9344 11.2122C49.9344 11.2124 49.9344 11.2126 49.9344 11.2129C49.9344 11.2131 49.9344 11.2133 49.9344 11.2136C49.9344 11.2138 49.9344 11.214 49.9344 11.2143C49.9344 11.2145 49.9344 11.2147 49.9344 11.215C49.9344 11.2152 49.9344 11.2154 49.9344 11.2157C49.9344 11.2159 49.9344 11.2161 49.9344 11.2164C49.9344 11.2166 49.9344 11.2168 49.9344 11.2171C49.9344 11.2173 49.9344 11.2175 49.9344 11.2178C49.9344 11.218 49.9344 11.2182 49.9344 11.2185C49.9344 11.2187 49.9344 11.2189 49.9344 11.2192C49.9344 11.2194 49.9344 11.2196 49.9344 11.2198C49.9344 11.2201 49.9344 11.2203 49.9344 11.2205C49.9344 11.2208 49.9344 11.221 49.9344 11.2212C49.9344 11.2215 49.9344 11.2217 49.9344 11.2219C49.9344 11.2222 49.9344 11.2224 49.9344 11.2226C49.9344 11.2229 49.9344 11.2231 49.9344 11.2234C49.9344 11.2236 49.9344 11.2238 49.9344 11.2241C49.9344 11.2243 49.9344 11.2245 49.9344 11.2248C49.9344 11.225 49.9344 11.2252 49.9344 11.2255C49.9344 11.2257 49.9344 11.2259 49.9344 11.2262C49.9344 11.2264 49.9344 11.2266 49.9344 11.2269C49.9344 11.2271 49.9344 11.2273 49.9344 11.2276C49.9344 11.2278 49.9344 11.228 49.9344 11.2283C49.9344 11.2285 49.9344 11.2287 49.9344 11.229C49.9344 11.2292 49.9344 11.2294 49.9344 11.2297C49.9344 11.2299 49.9344 11.2301 49.9344 11.2304C49.9344 11.2306 49.9344 11.2309 49.9344 11.2311C49.9344 11.2313 49.9344 11.2316 49.9344 11.2318C49.9344 11.232 49.9344 11.2323 49.9344 11.2325C49.9344 11.2327 49.9344 11.233 49.9344 11.2332C49.9344 11.2334 49.9344 11.2337 49.9344 11.2339C49.9344 11.2341 49.9344 11.2344 49.9344 11.2346C49.9344 11.2349 49.9344 11.2351 49.9344 11.2353C49.9344 11.2356 49.9344 11.2358 49.9344 11.236C49.9344 11.2363 49.9344 11.2365 49.9344 11.2367C49.9344 11.237 49.9344 11.2372 49.9344 11.2374C49.9344 11.2377 49.9344 11.2379 49.9344 11.2382C49.9344 11.2384 49.9344 11.2386 49.9344 11.2389C49.9344 11.2391 49.9344 11.2393 49.9344 11.2396C49.9344 11.2398 49.9344 11.2401 49.9344 11.2403C49.9344 11.2405 49.9344 11.2408 49.9344 11.241C49.9344 11.2412 49.9344 11.2415 49.9344 11.2417C49.9344 11.2419 49.9344 11.2422 49.9344 11.2424C49.9344 11.2427 49.9344 11.2429 49.9344 11.2431C49.9344 11.2434 49.9344 11.2436 49.9344 11.2438C49.9344 11.2441 49.9344 11.2443 49.9344 11.2446C49.9344 11.2448 49.9344 11.245 49.9344 11.2453C49.9344 11.2455 49.9344 11.2457 49.9344 11.246C49.9344 11.2462 49.9344 11.2465 49.9344 11.2467C49.9344 11.2469 49.9344 11.2472 49.9344 11.2474C49.9344 11.2477 49.9344 11.2479 49.9344 11.2481C49.9344 11.2484 49.9344 11.2486 49.9344 11.2488C49.9344 11.2491 49.9344 11.2493 49.9344 11.2496C49.9344 11.2498 49.9344 11.25 49.9344 11.2503C49.9344 11.2505 49.9344 11.2508 49.9344 11.251C49.9344 11.2512 49.9344 11.2515 49.9344 11.2517C49.9344 11.2519 49.9344 11.2522 49.9344 11.2524C49.9344 11.2527 49.9344 11.2529 49.9344 11.2531C49.9344 11.2534 49.9344 11.2536 49.9344 11.2539C49.9344 11.2541 49.9344 11.2543 49.9344 11.2546C49.9344 11.2548 49.9344 11.2551 49.9344 11.2553C49.9344 11.2555 49.9344 11.2558 49.9344 11.256C49.9344 11.2563 49.9344 11.2565 49.9344 11.2567C49.9344 11.257 49.9344 11.2572 49.9344 11.2575C49.9344 11.2577 49.9344 11.2579 49.9344 11.2582C49.9344 11.2584 49.9344 11.2587 49.9344 11.2589C49.9344 11.2591 49.9344 11.2594 49.9344 11.2596C49.9344 11.2599 49.9344 11.2601 49.9344 11.2603C49.9344 11.2606 49.9344 11.2608 49.9344 11.2611C49.9344 11.2613 49.9344 11.2615 49.9344 11.2618C49.9344 11.262 49.9344 11.2623 49.9344 11.2625C49.9344 11.2627 49.9344 11.263 49.9344 11.2632C49.9344 11.2635 49.9344 11.2637 49.9344 11.264C49.9344 11.2642 49.9344 11.2644 49.9344 11.2647C49.9344 11.2649 49.9344 11.2652 49.9344 11.2654C49.9344 11.2656 49.9344 11.2659 49.9344 11.2661C49.9344 11.2664 49.9344 11.2666 49.9344 11.2668C49.9344 11.2671 49.9344 11.2673 49.9344 11.2676C49.9344 11.2678 49.9344 11.2681 49.9344 11.2683C49.9344 11.2685 49.9344 11.2688 49.9344 11.269C49.9344 11.2693 49.9344 11.2695 49.9344 11.2698C49.9344 11.27 49.9344 11.2702 49.9344 11.2705C49.9344 11.2707 49.9344 11.271 49.9344 11.2712C49.9344 11.2715 49.9344 11.2717 49.9344 11.2719C49.9344 11.2722 49.9344 11.2724 49.9344 11.2727C49.9344 11.2729 49.9344 11.2731 49.9344 11.2734C49.9344 11.2736 49.9344 11.2739 49.9344 11.2741C49.9344 11.2744 49.9344 11.2746 49.9344 11.2749C49.9344 11.2751 49.9344 11.2753 49.9344 11.2756C49.9344 11.2758 49.9344 11.2761 49.9344 11.2763C49.9344 11.2766 49.9344 11.2768 49.9344 11.277C49.9344 11.2773 49.9344 11.2775 49.9344 11.2778C49.9344 11.278 49.9344 11.2783 49.9344 11.2785C49.9344 11.2787 49.9344 11.279 49.9344 11.2792C49.9344 11.2795 49.9344 11.2797 49.9344 11.28C49.9344 11.2802 49.9344 11.2805 49.9344 11.2807C49.9344 11.2809 49.9344 11.2812 49.9344 11.2814C49.9344 11.2817 49.9344 11.2819 49.9344 11.2822C49.9344 11.2824 49.9344 11.2827 49.9344 11.2829C49.9344 11.2831 49.9344 11.2834 49.9344 11.2836C49.9344 11.2839 49.9344 11.2841 49.9344 11.2844C49.9344 11.2846 49.9344 11.2849 49.9344 11.2851C49.9344 11.2853 49.9344 11.2856 49.9344 11.2858C49.9344 11.2861 49.9344 11.2863 49.9344 11.2866C49.9344 11.2868 49.9344 11.2871 49.9344 11.2873C49.9344 11.2876 49.9344 11.2878 49.9344 11.288C49.9344 11.2883 49.9344 11.2885 49.9344 11.2888C49.9344 11.289 49.9344 11.2893 49.9344 11.2895C49.9344 11.2898 49.9344 11.29 49.9344 11.2903C49.9344 11.2905 49.9344 11.2908 49.9344 11.291C49.9344 11.2912 49.9344 11.2915 49.9344 11.2917C49.9344 11.292 49.9344 11.2922 49.9344 11.2925C49.9344 11.2927 49.9344 11.293 49.9344 11.2932C49.9344 11.2935 49.9344 11.2937 49.9344 11.294C49.9344 11.2942 49.9344 11.2944 49.9344 11.2947C49.9344 11.2949 49.9344 11.2952 49.9344 11.2954C49.9344 11.2957 49.9344 11.2959 49.9344 11.2962C49.9344 11.2964 49.9344 11.2967 49.9344 11.2969C49.9344 11.2972 49.9344 11.2974 49.9344 11.2977C49.9344 11.2979 49.9344 11.2982 49.9344 11.2984C49.9344 11.2986 49.9344 11.2989 49.9344 11.2991C49.9344 11.2994 49.9344 11.2996 49.9344 11.2999C49.9344 11.3001 49.9344 11.3004 49.9344 11.3006C49.9344 11.3009 49.9344 11.3011 49.9344 11.3014C49.9344 11.3016 49.9344 11.3019 49.9344 11.3021C49.9344 11.3024 49.9344 11.3026 49.9344 11.3029C49.9344 11.3031 49.9344 11.3034 49.9344 11.3036C49.9344 11.3039 49.9344 11.3041 49.9344 11.3044C49.9344 11.3046 49.9344 11.3048 49.9344 11.3051C49.9344 11.3053 49.9344 11.3056 49.9344 11.3058C49.9344 11.3061 49.9344 11.3063 49.9344 11.3066C49.9344 11.3068 49.9344 11.3071 49.9344 11.3073C49.9344 11.3076 49.9344 11.3078 49.9344 11.3081C49.9344 11.3083 49.9344 11.3086 49.9344 11.3088C49.9344 11.3091 49.9344 11.3093 49.9344 11.3096C49.9344 11.3098 49.9344 11.3101 49.9344 11.3103C49.9344 11.3106 49.9344 11.3108 49.9344 11.3111C49.9344 11.3113 49.9344 11.3116 49.9344 11.3118C49.9344 11.3121 49.9344 11.3123 49.9344 11.3126C49.9344 11.3128 49.9344 11.3131 49.9344 11.3133C49.9344 11.3136 49.9344 11.3138 49.9344 11.3141C49.9344 11.3143 49.9344 11.3146 49.9344 11.3148C49.9344 11.3151 49.9344 11.3153 49.9344 11.3156C49.9344 11.3158 49.9344 11.3161 49.9344 11.3163C49.9344 11.3166 49.9344 11.3168 49.9344 11.3171C49.9344 11.3173 49.9344 11.3176 49.9344 11.3178C49.9344 11.3181 49.9344 11.3183 49.9344 11.3186C49.9344 11.3188 49.9344 11.3191 49.9344 11.3193C49.9344 11.3196 49.9344 11.3198 49.9344 11.3201C49.9344 11.3203 49.9344 11.3206 49.9344 11.3208C49.9344 11.3211 49.9344 11.3214 49.9344 11.3216C49.9344 11.3219 49.9344 11.3221 49.9344 11.3224C49.9344 11.3226 49.9344 11.3229 49.9344 11.3231C49.9344 11.3234 49.9344 11.3236 49.9344 11.3239C49.9344 11.3241 49.9344 11.3244 49.9344 11.3246C49.9344 11.3249 49.9344 11.3251 49.9344 11.3254C49.9344 11.3256 49.9344 11.3259 49.9344 11.3261C49.9344 11.3264 49.9344 11.3266 49.9344 11.3269C49.9344 11.3271 49.9344 11.3274 49.9344 11.3277C49.9344 11.3279 49.9344 11.3282 49.9344 11.3284C49.9344 11.3287 49.9344 11.3289 49.9344 11.3292C49.9344 11.3294 49.9344 11.3297 49.9344 11.3299C49.9344 11.3302 49.9344 11.3304 49.9344 11.3307C49.9344 11.3309 49.9344 11.3312 49.9344 11.3314C49.9344 11.3317 49.9344 11.332 49.9344 11.3322C49.9344 11.3325 49.9344 11.3327 49.9344 11.333C49.9344 11.3332 49.9344 11.3335 49.9344 11.3337C49.9344 11.334 49.9344 11.3342 49.9344 11.3345C49.9344 11.3347 49.9344 11.335 49.9344 11.3352C49.9344 11.3355 49.9344 11.3358 49.9344 11.336C49.9344 11.3363 49.9344 11.3365 49.9344 11.3368C49.9344 11.337 49.9344 11.3373 49.9344 11.3375C49.9344 11.3378 49.9344 11.338 49.9344 11.3383C49.9344 11.3386 49.9344 11.3388 49.9344 11.3391C49.9344 11.3393 49.9344 11.3396 49.9344 11.3398C49.9344 11.3401 49.9344 11.3403 49.9344 11.3406C49.9344 11.3408 49.9344 11.3411 49.9344 11.3414C49.9344 11.3416 49.9344 11.3419 49.9344 11.3421C49.9344 11.3424 49.9344 11.3426 49.9344 11.3429C49.9344 11.3431 49.9344 11.3434 49.9344 11.3437C49.9344 11.3439 49.9344 11.3442 49.9344 11.3444C49.9344 11.3447 49.9344 11.3449 49.9344 11.3452C49.9344 11.3454 49.9344 11.3457 49.9344 11.346C49.9344 11.3462 49.9344 11.3465 49.9344 11.3467C49.9344 11.347 49.9344 11.3472 49.9344 11.3475C49.9344 11.3477 49.9344 11.348 49.9344 11.3483C49.9344 11.3485 49.9344 11.3488 49.9344 11.349C49.9344 11.3493 49.9344 11.3495 49.9344 11.3498C49.9344 11.35 49.9344 11.3503 49.9344 11.3506C49.9344 11.3508 49.9344 11.3511 49.9344 11.3513C49.9344 11.3516 49.9344 11.3518 49.9344 11.3521C49.9344 11.3524 49.9344 11.3526 49.9344 11.3529C49.9344 11.3531 49.9344 11.3534 49.9344 11.3536C49.9344 11.3539 49.9344 11.3542 49.9344 11.3544C49.9344 11.3547 49.9344 11.3549 49.9344 11.3552C49.9344 11.3554 49.9344 11.3557 49.9344 11.356C49.9344 11.3562 49.9344 11.3565 49.9344 11.3567C49.9344 11.357 49.9344 11.3572 49.9344 11.3575C49.9344 11.3578 49.9344 11.358 49.9344 11.3583C49.9344 11.3585 49.9344 11.3588 49.9344 11.3591C49.9344 11.3593 49.9344 11.3596 49.9344 11.3598C49.9344 11.3601 49.9344 11.3603 49.9344 11.3606C49.9344 11.3609 49.9344 11.3611 49.9344 11.3614C49.9344 11.3616 49.9344 11.3619 49.9344 11.3622C49.9344 11.3624 49.9344 11.3627 49.9344 11.3629C49.9344 11.3632 49.9344 11.3634 49.9344 11.3637C49.9344 11.364 49.9344 11.3642 49.9344 11.3645C49.9344 11.3647 49.9344 11.365 49.9344 11.3653C49.9344 11.3655 49.9344 11.3658 49.9344 11.366C49.9344 11.3663 49.9344 11.3666 49.9344 11.3668C49.9344 11.3671 49.9344 11.3673 49.9344 11.3676C49.9344 11.3678 49.9344 11.3681 49.9344 11.3684C49.9344 11.3686 49.9344 11.3689 49.9344 11.3691C49.9344 11.3694 49.9344 11.3697 49.9344 11.3699C49.9344 11.3702 49.9344 11.3704 49.9344 11.3707C49.9344 11.371 49.9344 11.3712 49.9344 11.3715C49.9344 11.3717 49.9344 11.372 49.9344 11.3723C49.9344 11.3725 49.9344 11.3728 49.9344 11.373C49.9344 11.3733 49.9344 11.3736 49.9344 11.3738C49.9344 11.3741 49.9344 11.3744 49.9344 11.3746C49.9344 11.3749 49.9344 11.3751 49.9344 11.3754C49.9344 11.3757 49.9344 11.3759 49.9344 11.3762C49.9344 11.3764 49.9344 11.3767 49.9344 11.377C49.9344 11.3772 49.9344 11.3775 49.9344 11.3777C49.9344 11.378 49.9344 11.3783 49.9344 11.3785C49.9344 11.3788 49.9344 11.379 49.9344 11.3793C49.9344 11.3796 49.9344 11.3798 49.9344 11.3801C49.9344 11.3804 49.9344 11.3806 49.9344 11.3809C49.9344 11.3811 49.9344 11.3814 49.9344 11.3817C49.9344 11.3819 49.9344 11.3822 49.9344 11.3825C49.9344 11.3827 49.9344 11.383 49.9344 11.3832C49.9344 11.3835 49.9344 11.3838 49.9344 11.384C49.9344 11.3843 49.9344 11.3845 49.9344 11.3848C49.9344 11.3851 49.9344 11.3853 49.9344 11.3856C49.9344 11.3859 49.9344 11.3861 49.9344 11.3864C49.9344 11.3866 49.9344 11.3869 49.9344 11.3872C49.9344 11.3874 49.9344 11.3877 49.9344 11.388C49.9344 11.3882 49.9344 11.3885 49.9344 11.3888C49.9344 11.389 49.9344 11.3893 49.9344 11.3895C49.9344 11.3898 49.9344 11.3901 49.9344 11.3903C49.9344 11.3906 49.9344 11.3909 49.9344 11.3911C49.9344 11.3914 49.9344 11.3916 49.9344 11.3919C49.9344 11.3922 49.9344 11.3924 49.9344 11.3927C49.9344 11.393 49.9344 11.3932 49.9344 11.3935C49.9344 11.3938 49.9344 11.394 49.9344 11.3943C49.9344 11.3945 49.9344 11.3948 49.9344 11.3951C49.9344 11.3953 49.9344 11.3956 49.9344 11.3959C49.9344 11.3961 49.9344 11.3964 49.9344 11.3967C49.9344 11.3969 49.9344 11.3972 49.9344 11.3975C49.9344 11.3977 49.9344 11.398 49.9344 11.3982C49.9344 11.3985 49.9344 11.3988 49.9344 11.399C49.9344 11.3993 49.9344 11.3996 49.9344 11.3998C49.9344 11.4001 49.9344 11.4004 49.9344 11.4006C49.9344 11.4009 49.9344 11.4012 49.9344 11.4014C49.9344 11.4017 49.9344 11.402 49.9344 11.4022C49.9344 11.4025 49.9344 11.4028 49.9344 11.403C49.9344 11.4033 49.9344 11.4035 49.9344 11.4038C49.9344 11.4041 49.9344 11.4043 49.9344 11.4046C49.9344 11.4049 49.9344 11.4051 49.9344 11.4054C49.9344 11.4057 49.9344 11.4059 49.9344 11.4062C49.9344 11.4065 49.9344 11.4067 49.9344 11.407C49.9344 11.4073 49.9344 11.4075 49.9344 11.4078C49.9344 11.4081 49.9344 11.4083 49.9344 11.4086C49.9344 11.4089 49.9344 11.4091 49.9344 11.4094C49.9344 11.4097 49.9344 11.4099 49.9344 11.4102C49.9344 11.4105 49.9344 11.4107 49.9344 11.411C49.9344 11.4113 49.9344 11.4115 49.9344 11.4118C49.9344 11.4121 49.9344 11.4123 49.9344 11.4126C49.9344 11.4129 49.9344 11.4131 49.9344 11.4134C49.9344 11.4137 49.9344 11.4139 49.9344 11.4142C49.9344 11.4145 49.9344 11.4147 49.9344 11.415C49.9344 11.4153 49.9344 11.4155 49.9344 11.4158C49.9344 11.4161 49.9344 11.4163 49.9344 11.4166C49.9344 11.4169 49.9344 11.4171 49.9344 11.4174C49.9344 11.4177 49.9344 11.4179 49.9344 11.4182C49.9344 11.4185 49.9344 11.4188 49.9344 11.419C49.9344 11.4193 49.9344 11.4196 49.9344 11.4198C49.9344 11.4201 49.9344 11.4204 49.9344 11.4206C49.9344 11.4209 49.9344 11.4212 49.9344 11.4214C49.9344 11.4217 49.9344 11.422 49.9344 11.4222C49.9344 11.4225 49.9344 11.4228 49.9344 11.423C49.9344 11.4233 49.9344 11.4236 49.9344 11.4239C49.9344 11.4241 49.9344 11.4244 49.9344 11.4247C49.9344 11.4249 49.9344 11.4252 49.9344 11.4255C49.9344 11.4257 49.9344 11.426 49.9344 11.4263C49.9344 11.4265 49.9344 11.4268 49.9344 11.4271C49.9344 11.4274 49.9344 11.4276 49.9344 11.4279C49.9344 11.4282 49.9344 11.4284 49.9344 11.4287C49.9344 11.429 49.9344 11.4292 49.9344 11.4295C49.9344 11.4298 49.9344 11.43 49.9344 11.4303C49.9344 11.4306 49.9344 11.4309 49.9344 11.4311C49.9344 11.4314 49.9344 11.4317 49.9344 11.4319C49.9344 11.4322 49.9344 11.4325 49.9344 11.4328C49.9344 11.433 49.9344 11.4333 49.9344 11.4336C49.9344 11.4338 49.9344 11.4341 49.9344 11.4344C49.9344 11.4346 49.9344 11.4349 49.9344 11.4352C49.9344 11.4355 49.9344 11.4357 49.9344 11.436H51.9344C51.9344 11.4357 51.9344 11.4355 51.9344 11.4352C51.9344 11.4349 51.9344 11.4346 51.9344 11.4344C51.9344 11.4341 51.9344 11.4338 51.9344 11.4336C51.9344 11.4333 51.9344 11.433 51.9344 11.4328C51.9344 11.4325 51.9344 11.4322 51.9344 11.4319C51.9344 11.4317 51.9344 11.4314 51.9344 11.4311C51.9344 11.4309 51.9344 11.4306 51.9344 11.4303C51.9344 11.43 51.9344 11.4298 51.9344 11.4295C51.9344 11.4292 51.9344 11.429 51.9344 11.4287C51.9344 11.4284 51.9344 11.4282 51.9344 11.4279C51.9344 11.4276 51.9344 11.4274 51.9344 11.4271C51.9344 11.4268 51.9344 11.4265 51.9344 11.4263C51.9344 11.426 51.9344 11.4257 51.9344 11.4255C51.9344 11.4252 51.9344 11.4249 51.9344 11.4247C51.9344 11.4244 51.9344 11.4241 51.9344 11.4239C51.9344 11.4236 51.9344 11.4233 51.9344 11.423C51.9344 11.4228 51.9344 11.4225 51.9344 11.4222C51.9344 11.422 51.9344 11.4217 51.9344 11.4214C51.9344 11.4212 51.9344 11.4209 51.9344 11.4206C51.9344 11.4204 51.9344 11.4201 51.9344 11.4198C51.9344 11.4196 51.9344 11.4193 51.9344 11.419C51.9344 11.4188 51.9344 11.4185 51.9344 11.4182C51.9344 11.4179 51.9344 11.4177 51.9344 11.4174C51.9344 11.4171 51.9344 11.4169 51.9344 11.4166C51.9344 11.4163 51.9344 11.4161 51.9344 11.4158C51.9344 11.4155 51.9344 11.4153 51.9344 11.415C51.9344 11.4147 51.9344 11.4145 51.9344 11.4142C51.9344 11.4139 51.9344 11.4137 51.9344 11.4134C51.9344 11.4131 51.9344 11.4129 51.9344 11.4126C51.9344 11.4123 51.9344 11.4121 51.9344 11.4118C51.9344 11.4115 51.9344 11.4113 51.9344 11.411C51.9344 11.4107 51.9344 11.4105 51.9344 11.4102C51.9344 11.4099 51.9344 11.4097 51.9344 11.4094C51.9344 11.4091 51.9344 11.4089 51.9344 11.4086C51.9344 11.4083 51.9344 11.4081 51.9344 11.4078C51.9344 11.4075 51.9344 11.4073 51.9344 11.407C51.9344 11.4067 51.9344 11.4065 51.9344 11.4062C51.9344 11.4059 51.9344 11.4057 51.9344 11.4054C51.9344 11.4051 51.9344 11.4049 51.9344 11.4046C51.9344 11.4043 51.9344 11.4041 51.9344 11.4038C51.9344 11.4035 51.9344 11.4033 51.9344 11.403C51.9344 11.4028 51.9344 11.4025 51.9344 11.4022C51.9344 11.402 51.9344 11.4017 51.9344 11.4014C51.9344 11.4012 51.9344 11.4009 51.9344 11.4006C51.9344 11.4004 51.9344 11.4001 51.9344 11.3998C51.9344 11.3996 51.9344 11.3993 51.9344 11.399C51.9344 11.3988 51.9344 11.3985 51.9344 11.3982C51.9344 11.398 51.9344 11.3977 51.9344 11.3975C51.9344 11.3972 51.9344 11.3969 51.9344 11.3967C51.9344 11.3964 51.9344 11.3961 51.9344 11.3959C51.9344 11.3956 51.9344 11.3953 51.9344 11.3951C51.9344 11.3948 51.9344 11.3945 51.9344 11.3943C51.9344 11.394 51.9344 11.3938 51.9344 11.3935C51.9344 11.3932 51.9344 11.393 51.9344 11.3927C51.9344 11.3924 51.9344 11.3922 51.9344 11.3919C51.9344 11.3916 51.9344 11.3914 51.9344 11.3911C51.9344 11.3909 51.9344 11.3906 51.9344 11.3903C51.9344 11.3901 51.9344 11.3898 51.9344 11.3895C51.9344 11.3893 51.9344 11.389 51.9344 11.3888C51.9344 11.3885 51.9344 11.3882 51.9344 11.388C51.9344 11.3877 51.9344 11.3874 51.9344 11.3872C51.9344 11.3869 51.9344 11.3866 51.9344 11.3864C51.9344 11.3861 51.9344 11.3859 51.9344 11.3856C51.9344 11.3853 51.9344 11.3851 51.9344 11.3848C51.9344 11.3845 51.9344 11.3843 51.9344 11.384C51.9344 11.3838 51.9344 11.3835 51.9344 11.3832C51.9344 11.383 51.9344 11.3827 51.9344 11.3825C51.9344 11.3822 51.9344 11.3819 51.9344 11.3817C51.9344 11.3814 51.9344 11.3811 51.9344 11.3809C51.9344 11.3806 51.9344 11.3804 51.9344 11.3801C51.9344 11.3798 51.9344 11.3796 51.9344 11.3793C51.9344 11.379 51.9344 11.3788 51.9344 11.3785C51.9344 11.3783 51.9344 11.378 51.9344 11.3777C51.9344 11.3775 51.9344 11.3772 51.9344 11.377C51.9344 11.3767 51.9344 11.3764 51.9344 11.3762C51.9344 11.3759 51.9344 11.3757 51.9344 11.3754C51.9344 11.3751 51.9344 11.3749 51.9344 11.3746C51.9344 11.3744 51.9344 11.3741 51.9344 11.3738C51.9344 11.3736 51.9344 11.3733 51.9344 11.373C51.9344 11.3728 51.9344 11.3725 51.9344 11.3723C51.9344 11.372 51.9344 11.3717 51.9344 11.3715C51.9344 11.3712 51.9344 11.371 51.9344 11.3707C51.9344 11.3704 51.9344 11.3702 51.9344 11.3699C51.9344 11.3697 51.9344 11.3694 51.9344 11.3691C51.9344 11.3689 51.9344 11.3686 51.9344 11.3684C51.9344 11.3681 51.9344 11.3678 51.9344 11.3676C51.9344 11.3673 51.9344 11.3671 51.9344 11.3668C51.9344 11.3666 51.9344 11.3663 51.9344 11.366C51.9344 11.3658 51.9344 11.3655 51.9344 11.3653C51.9344 11.365 51.9344 11.3647 51.9344 11.3645C51.9344 11.3642 51.9344 11.364 51.9344 11.3637C51.9344 11.3634 51.9344 11.3632 51.9344 11.3629C51.9344 11.3627 51.9344 11.3624 51.9344 11.3622C51.9344 11.3619 51.9344 11.3616 51.9344 11.3614C51.9344 11.3611 51.9344 11.3609 51.9344 11.3606C51.9344 11.3603 51.9344 11.3601 51.9344 11.3598C51.9344 11.3596 51.9344 11.3593 51.9344 11.3591C51.9344 11.3588 51.9344 11.3585 51.9344 11.3583C51.9344 11.358 51.9344 11.3578 51.9344 11.3575C51.9344 11.3572 51.9344 11.357 51.9344 11.3567C51.9344 11.3565 51.9344 11.3562 51.9344 11.356C51.9344 11.3557 51.9344 11.3554 51.9344 11.3552C51.9344 11.3549 51.9344 11.3547 51.9344 11.3544C51.9344 11.3542 51.9344 11.3539 51.9344 11.3536C51.9344 11.3534 51.9344 11.3531 51.9344 11.3529C51.9344 11.3526 51.9344 11.3524 51.9344 11.3521C51.9344 11.3518 51.9344 11.3516 51.9344 11.3513C51.9344 11.3511 51.9344 11.3508 51.9344 11.3506C51.9344 11.3503 51.9344 11.35 51.9344 11.3498C51.9344 11.3495 51.9344 11.3493 51.9344 11.349C51.9344 11.3488 51.9344 11.3485 51.9344 11.3483C51.9344 11.348 51.9344 11.3477 51.9344 11.3475C51.9344 11.3472 51.9344 11.347 51.9344 11.3467C51.9344 11.3465 51.9344 11.3462 51.9344 11.346C51.9344 11.3457 51.9344 11.3454 51.9344 11.3452C51.9344 11.3449 51.9344 11.3447 51.9344 11.3444C51.9344 11.3442 51.9344 11.3439 51.9344 11.3437C51.9344 11.3434 51.9344 11.3431 51.9344 11.3429C51.9344 11.3426 51.9344 11.3424 51.9344 11.3421C51.9344 11.3419 51.9344 11.3416 51.9344 11.3414C51.9344 11.3411 51.9344 11.3408 51.9344 11.3406C51.9344 11.3403 51.9344 11.3401 51.9344 11.3398C51.9344 11.3396 51.9344 11.3393 51.9344 11.3391C51.9344 11.3388 51.9344 11.3386 51.9344 11.3383C51.9344 11.338 51.9344 11.3378 51.9344 11.3375C51.9344 11.3373 51.9344 11.337 51.9344 11.3368C51.9344 11.3365 51.9344 11.3363 51.9344 11.336C51.9344 11.3358 51.9344 11.3355 51.9344 11.3352C51.9344 11.335 51.9344 11.3347 51.9344 11.3345C51.9344 11.3342 51.9344 11.334 51.9344 11.3337C51.9344 11.3335 51.9344 11.3332 51.9344 11.333C51.9344 11.3327 51.9344 11.3325 51.9344 11.3322C51.9344 11.332 51.9344 11.3317 51.9344 11.3314C51.9344 11.3312 51.9344 11.3309 51.9344 11.3307C51.9344 11.3304 51.9344 11.3302 51.9344 11.3299C51.9344 11.3297 51.9344 11.3294 51.9344 11.3292C51.9344 11.3289 51.9344 11.3287 51.9344 11.3284C51.9344 11.3282 51.9344 11.3279 51.9344 11.3277C51.9344 11.3274 51.9344 11.3271 51.9344 11.3269C51.9344 11.3266 51.9344 11.3264 51.9344 11.3261C51.9344 11.3259 51.9344 11.3256 51.9344 11.3254C51.9344 11.3251 51.9344 11.3249 51.9344 11.3246C51.9344 11.3244 51.9344 11.3241 51.9344 11.3239C51.9344 11.3236 51.9344 11.3234 51.9344 11.3231C51.9344 11.3229 51.9344 11.3226 51.9344 11.3224C51.9344 11.3221 51.9344 11.3219 51.9344 11.3216C51.9344 11.3214 51.9344 11.3211 51.9344 11.3208C51.9344 11.3206 51.9344 11.3203 51.9344 11.3201C51.9344 11.3198 51.9344 11.3196 51.9344 11.3193C51.9344 11.3191 51.9344 11.3188 51.9344 11.3186C51.9344 11.3183 51.9344 11.3181 51.9344 11.3178C51.9344 11.3176 51.9344 11.3173 51.9344 11.3171C51.9344 11.3168 51.9344 11.3166 51.9344 11.3163C51.9344 11.3161 51.9344 11.3158 51.9344 11.3156C51.9344 11.3153 51.9344 11.3151 51.9344 11.3148C51.9344 11.3146 51.9344 11.3143 51.9344 11.3141C51.9344 11.3138 51.9344 11.3136 51.9344 11.3133C51.9344 11.3131 51.9344 11.3128 51.9344 11.3126C51.9344 11.3123 51.9344 11.3121 51.9344 11.3118C51.9344 11.3116 51.9344 11.3113 51.9344 11.3111C51.9344 11.3108 51.9344 11.3106 51.9344 11.3103C51.9344 11.3101 51.9344 11.3098 51.9344 11.3096C51.9344 11.3093 51.9344 11.3091 51.9344 11.3088C51.9344 11.3086 51.9344 11.3083 51.9344 11.3081C51.9344 11.3078 51.9344 11.3076 51.9344 11.3073C51.9344 11.3071 51.9344 11.3068 51.9344 11.3066C51.9344 11.3063 51.9344 11.3061 51.9344 11.3058C51.9344 11.3056 51.9344 11.3053 51.9344 11.3051C51.9344 11.3048 51.9344 11.3046 51.9344 11.3044C51.9344 11.3041 51.9344 11.3039 51.9344 11.3036C51.9344 11.3034 51.9344 11.3031 51.9344 11.3029C51.9344 11.3026 51.9344 11.3024 51.9344 11.3021C51.9344 11.3019 51.9344 11.3016 51.9344 11.3014C51.9344 11.3011 51.9344 11.3009 51.9344 11.3006C51.9344 11.3004 51.9344 11.3001 51.9344 11.2999C51.9344 11.2996 51.9344 11.2994 51.9344 11.2991C51.9344 11.2989 51.9344 11.2986 51.9344 11.2984C51.9344 11.2982 51.9344 11.2979 51.9344 11.2977C51.9344 11.2974 51.9344 11.2972 51.9344 11.2969C51.9344 11.2967 51.9344 11.2964 51.9344 11.2962C51.9344 11.2959 51.9344 11.2957 51.9344 11.2954C51.9344 11.2952 51.9344 11.2949 51.9344 11.2947C51.9344 11.2944 51.9344 11.2942 51.9344 11.294C51.9344 11.2937 51.9344 11.2935 51.9344 11.2932C51.9344 11.293 51.9344 11.2927 51.9344 11.2925C51.9344 11.2922 51.9344 11.292 51.9344 11.2917C51.9344 11.2915 51.9344 11.2912 51.9344 11.291C51.9344 11.2908 51.9344 11.2905 51.9344 11.2903C51.9344 11.29 51.9344 11.2898 51.9344 11.2895C51.9344 11.2893 51.9344 11.289 51.9344 11.2888C51.9344 11.2885 51.9344 11.2883 51.9344 11.288C51.9344 11.2878 51.9344 11.2876 51.9344 11.2873C51.9344 11.2871 51.9344 11.2868 51.9344 11.2866C51.9344 11.2863 51.9344 11.2861 51.9344 11.2858C51.9344 11.2856 51.9344 11.2853 51.9344 11.2851C51.9344 11.2849 51.9344 11.2846 51.9344 11.2844C51.9344 11.2841 51.9344 11.2839 51.9344 11.2836C51.9344 11.2834 51.9344 11.2831 51.9344 11.2829C51.9344 11.2827 51.9344 11.2824 51.9344 11.2822C51.9344 11.2819 51.9344 11.2817 51.9344 11.2814C51.9344 11.2812 51.9344 11.2809 51.9344 11.2807C51.9344 11.2805 51.9344 11.2802 51.9344 11.28C51.9344 11.2797 51.9344 11.2795 51.9344 11.2792C51.9344 11.279 51.9344 11.2787 51.9344 11.2785C51.9344 11.2783 51.9344 11.278 51.9344 11.2778C51.9344 11.2775 51.9344 11.2773 51.9344 11.277C51.9344 11.2768 51.9344 11.2766 51.9344 11.2763C51.9344 11.2761 51.9344 11.2758 51.9344 11.2756C51.9344 11.2753 51.9344 11.2751 51.9344 11.2749C51.9344 11.2746 51.9344 11.2744 51.9344 11.2741C51.9344 11.2739 51.9344 11.2736 51.9344 11.2734C51.9344 11.2731 51.9344 11.2729 51.9344 11.2727C51.9344 11.2724 51.9344 11.2722 51.9344 11.2719C51.9344 11.2717 51.9344 11.2715 51.9344 11.2712C51.9344 11.271 51.9344 11.2707 51.9344 11.2705C51.9344 11.2702 51.9344 11.27 51.9344 11.2698C51.9344 11.2695 51.9344 11.2693 51.9344 11.269C51.9344 11.2688 51.9344 11.2685 51.9344 11.2683C51.9344 11.2681 51.9344 11.2678 51.9344 11.2676C51.9344 11.2673 51.9344 11.2671 51.9344 11.2668C51.9344 11.2666 51.9344 11.2664 51.9344 11.2661C51.9344 11.2659 51.9344 11.2656 51.9344 11.2654C51.9344 11.2652 51.9344 11.2649 51.9344 11.2647C51.9344 11.2644 51.9344 11.2642 51.9344 11.264C51.9344 11.2637 51.9344 11.2635 51.9344 11.2632C51.9344 11.263 51.9344 11.2627 51.9344 11.2625C51.9344 11.2623 51.9344 11.262 51.9344 11.2618C51.9344 11.2615 51.9344 11.2613 51.9344 11.2611C51.9344 11.2608 51.9344 11.2606 51.9344 11.2603C51.9344 11.2601 51.9344 11.2599 51.9344 11.2596C51.9344 11.2594 51.9344 11.2591 51.9344 11.2589C51.9344 11.2587 51.9344 11.2584 51.9344 11.2582C51.9344 11.2579 51.9344 11.2577 51.9344 11.2575C51.9344 11.2572 51.9344 11.257 51.9344 11.2567C51.9344 11.2565 51.9344 11.2563 51.9344 11.256C51.9344 11.2558 51.9344 11.2555 51.9344 11.2553C51.9344 11.2551 51.9344 11.2548 51.9344 11.2546C51.9344 11.2543 51.9344 11.2541 51.9344 11.2539C51.9344 11.2536 51.9344 11.2534 51.9344 11.2531C51.9344 11.2529 51.9344 11.2527 51.9344 11.2524C51.9344 11.2522 51.9344 11.2519 51.9344 11.2517C51.9344 11.2515 51.9344 11.2512 51.9344 11.251C51.9344 11.2508 51.9344 11.2505 51.9344 11.2503C51.9344 11.25 51.9344 11.2498 51.9344 11.2496C51.9344 11.2493 51.9344 11.2491 51.9344 11.2488C51.9344 11.2486 51.9344 11.2484 51.9344 11.2481C51.9344 11.2479 51.9344 11.2477 51.9344 11.2474C51.9344 11.2472 51.9344 11.2469 51.9344 11.2467C51.9344 11.2465 51.9344 11.2462 51.9344 11.246C51.9344 11.2457 51.9344 11.2455 51.9344 11.2453C51.9344 11.245 51.9344 11.2448 51.9344 11.2446C51.9344 11.2443 51.9344 11.2441 51.9344 11.2438C51.9344 11.2436 51.9344 11.2434 51.9344 11.2431C51.9344 11.2429 51.9344 11.2427 51.9344 11.2424C51.9344 11.2422 51.9344 11.2419 51.9344 11.2417C51.9344 11.2415 51.9344 11.2412 51.9344 11.241C51.9344 11.2408 51.9344 11.2405 51.9344 11.2403C51.9344 11.2401 51.9344 11.2398 51.9344 11.2396C51.9344 11.2393 51.9344 11.2391 51.9344 11.2389C51.9344 11.2386 51.9344 11.2384 51.9344 11.2382C51.9344 11.2379 51.9344 11.2377 51.9344 11.2374C51.9344 11.2372 51.9344 11.237 51.9344 11.2367C51.9344 11.2365 51.9344 11.2363 51.9344 11.236C51.9344 11.2358 51.9344 11.2356 51.9344 11.2353C51.9344 11.2351 51.9344 11.2349 51.9344 11.2346C51.9344 11.2344 51.9344 11.2341 51.9344 11.2339C51.9344 11.2337 51.9344 11.2334 51.9344 11.2332C51.9344 11.233 51.9344 11.2327 51.9344 11.2325C51.9344 11.2323 51.9344 11.232 51.9344 11.2318C51.9344 11.2316 51.9344 11.2313 51.9344 11.2311C51.9344 11.2309 51.9344 11.2306 51.9344 11.2304C51.9344 11.2301 51.9344 11.2299 51.9344 11.2297C51.9344 11.2294 51.9344 11.2292 51.9344 11.229C51.9344 11.2287 51.9344 11.2285 51.9344 11.2283C51.9344 11.228 51.9344 11.2278 51.9344 11.2276C51.9344 11.2273 51.9344 11.2271 51.9344 11.2269C51.9344 11.2266 51.9344 11.2264 51.9344 11.2262C51.9344 11.2259 51.9344 11.2257 51.9344 11.2255C51.9344 11.2252 51.9344 11.225 51.9344 11.2248C51.9344 11.2245 51.9344 11.2243 51.9344 11.2241C51.9344 11.2238 51.9344 11.2236 51.9344 11.2234C51.9344 11.2231 51.9344 11.2229 51.9344 11.2226C51.9344 11.2224 51.9344 11.2222 51.9344 11.2219C51.9344 11.2217 51.9344 11.2215 51.9344 11.2212C51.9344 11.221 51.9344 11.2208 51.9344 11.2205C51.9344 11.2203 51.9344 11.2201 51.9344 11.2198C51.9344 11.2196 51.9344 11.2194 51.9344 11.2192C51.9344 11.2189 51.9344 11.2187 51.9344 11.2185C51.9344 11.2182 51.9344 11.218 51.9344 11.2178C51.9344 11.2175 51.9344 11.2173 51.9344 11.2171C51.9344 11.2168 51.9344 11.2166 51.9344 11.2164C51.9344 11.2161 51.9344 11.2159 51.9344 11.2157C51.9344 11.2154 51.9344 11.2152 51.9344 11.215C51.9344 11.2147 51.9344 11.2145 51.9344 11.2143C51.9344 11.214 51.9344 11.2138 51.9344 11.2136C51.9344 11.2133 51.9344 11.2131 51.9344 11.2129C51.9344 11.2126 51.9344 11.2124 51.9344 11.2122C51.9344 11.212 51.9344 11.2117 51.9344 11.2115C51.9344 11.2113 51.9344 11.211 51.9344 11.2108C51.9344 11.2106 51.9344 11.2103 51.9344 11.2101C51.9344 11.2099 51.9344 11.2096 51.9344 11.2094C51.9344 11.2092 51.9344 11.2089 51.9344 11.2087C51.9344 11.2085 51.9344 11.2083 51.9344 11.208C51.9344 11.2078 51.9344 11.2076 51.9344 11.2073C51.9344 11.2071 51.9344 11.2069 51.9344 11.2066C51.9344 11.2064 51.9344 11.2062 51.9344 11.2059C51.9344 11.2057 51.9344 11.2055 51.9344 11.2053C51.9344 11.205 51.9344 11.2048 51.9344 11.2046C51.9344 11.2043 51.9344 11.2041 51.9344 11.2039C51.9344 11.2036 51.9344 11.2034 51.9344 11.2032C51.9344 11.203 51.9344 11.2027 51.9344 11.2025C51.9344 11.2023 51.9344 11.202 51.9344 11.2018C51.9344 11.2016 51.9344 11.2013 51.9344 11.2011C51.9344 11.2009 51.9344 11.2007 51.9344 11.2004C51.9344 11.2002 51.9344 11.2 51.9344 11.1997C51.9344 11.1995 51.9344 11.1993 51.9344 11.1991C51.9344 11.1988 51.9344 11.1986 51.9344 11.1984C51.9344 11.1981 51.9344 11.1979 51.9344 11.1977C51.9344 11.1975 51.9344 11.1972 51.9344 11.197C51.9344 11.1968 51.9344 11.1965 51.9344 11.1963C51.9344 11.1961 51.9344 11.1959 51.9344 11.1956C51.9344 11.1954 51.9344 11.1952 51.9344 11.1949C51.9344 11.1947 51.9344 11.1945 51.9344 11.1943C51.9344 11.194 51.9344 11.1938 51.9344 11.1936C51.9344 11.1933 51.9344 11.1931 51.9344 11.1929C51.9344 11.1927 51.9344 11.1924 51.9344 11.1922C51.9344 11.192 51.9344 11.1917 51.9344 11.1915C51.9344 11.1913 51.9344 11.1911 51.9344 11.1908C51.9344 11.1906 51.9344 11.1904 51.9344 11.1902C51.9344 11.1899 51.9344 11.1897 51.9344 11.1895C51.9344 11.1892 51.9344 11.189 51.9344 11.1888C51.9344 11.1886 51.9344 11.1883 51.9344 11.1881C51.9344 11.1879 51.9344 11.1877 51.9344 11.1874C51.9344 11.1872 51.9344 11.187 51.9344 11.1868C51.9344 11.1865 51.9344 11.1863 51.9344 11.1861C51.9344 11.1858 51.9344 11.1856 51.9344 11.1854C51.9344 11.1852 51.9344 11.1849 51.9344 11.1847C51.9344 11.1845 51.9344 11.1843 51.9344 11.184C51.9344 11.1838 51.9344 11.1836 51.9344 11.1834C51.9344 11.1831 51.9344 11.1829 51.9344 11.1827C51.9344 11.1825 51.9344 11.1822 51.9344 11.182C51.9344 11.1818 51.9344 11.1816 51.9344 11.1813C51.9344 11.1811 51.9344 11.1809 51.9344 11.1806C51.9344 11.1804 51.9344 11.1802 51.9344 11.18C51.9344 11.1797 51.9344 11.1795 51.9344 11.1793C51.9344 11.1791 51.9344 11.1788 51.9344 11.1786C51.9344 11.1784 51.9344 11.1782 51.9344 11.1779C51.9344 11.1777 51.9344 11.1775 51.9344 11.1773C51.9344 11.177 51.9344 11.1768 51.9344 11.1766C51.9344 11.1764 51.9344 11.1761 51.9344 11.1759C51.9344 11.1757 51.9344 11.1755 51.9344 11.1753C51.9344 11.175 51.9344 11.1748 51.9344 11.1746C51.9344 11.1744 51.9344 11.1741 51.9344 11.1739C51.9344 11.1737 51.9344 11.1735 51.9344 11.1732C51.9344 11.173 51.9344 11.1728 51.9344 11.1726C51.9344 11.1723 51.9344 11.1721 51.9344 11.1719C51.9344 11.1717 51.9344 11.1714 51.9344 11.1712C51.9344 11.171 51.9344 11.1708 51.9344 11.1705C51.9344 11.1703 51.9344 11.1701 51.9344 11.1699C51.9344 11.1697 51.9344 11.1694 51.9344 11.1692C51.9344 11.169 51.9344 11.1688 51.9344 11.1685C51.9344 11.1683 51.9344 11.1681 51.9344 11.1679C51.9344 11.1676 51.9344 11.1674 51.9344 11.1672C51.9344 11.167 51.9344 11.1668 51.9344 11.1665C51.9344 11.1663 51.9344 11.1661 51.9344 11.1659C51.9344 11.1656 51.9344 11.1654 51.9344 11.1652C51.9344 11.165 51.9344 11.1648 51.9344 11.1645C51.9344 11.1643 51.9344 11.1641 51.9344 11.1639C51.9344 11.1636 51.9344 11.1634 51.9344 11.1632C51.9344 11.163 51.9344 11.1628 51.9344 11.1625C51.9344 11.1623 51.9344 11.1621 51.9344 11.1619C51.9344 11.1616 51.9344 11.1614 51.9344 11.1612C51.9344 11.161 51.9344 11.1608 51.9344 11.1605C51.9344 11.1603 51.9344 11.1601 51.9344 11.1599C51.9344 11.1596 51.9344 11.1594 51.9344 11.1592C51.9344 11.159 51.9344 11.1588 51.9344 11.1585C51.9344 11.1583 51.9344 11.1581 51.9344 11.1579C51.9344 11.1577 51.9344 11.1574 51.9344 11.1572C51.9344 11.157 51.9344 11.1568 51.9344 11.1566C51.9344 11.1563 51.9344 11.1561 51.9344 11.1559C51.9344 11.1557 51.9344 11.1555 51.9344 11.1552C51.9344 11.155 51.9344 11.1548 51.9344 11.1546C51.9344 11.1544 51.9344 11.1541 51.9344 11.1539C51.9344 11.1537 51.9344 11.1535 51.9344 11.1532C51.9344 11.153 51.9344 11.1528 51.9344 11.1526C51.9344 11.1524 51.9344 11.1521 51.9344 11.1519C51.9344 11.1517 51.9344 11.1515 51.9344 11.1513C51.9344 11.1511 51.9344 11.1508 51.9344 11.1506C51.9344 11.1504 51.9344 11.1502 51.9344 11.15C51.9344 11.1497 51.9344 11.1495 51.9344 11.1493C51.9344 11.1491 51.9344 11.1489 51.9344 11.1486C51.9344 11.1484 51.9344 11.1482 51.9344 11.148C51.9344 11.1478 51.9344 11.1475 51.9344 11.1473C51.9344 11.1471 51.9344 11.1469 51.9344 11.1467C51.9344 11.1464 51.9344 11.1462 51.9344 11.146C51.9344 11.1458 51.9344 11.1456 51.9344 11.1454C51.9344 11.1451 51.9344 11.1449 51.9344 11.1447C51.9344 11.1445 51.9344 11.1443 51.9344 11.144C51.9344 11.1438 51.9344 11.1436 51.9344 11.1434C51.9344 11.1432 51.9344 11.143 51.9344 11.1427C51.9344 11.1425 51.9344 11.1423 51.9344 11.1421C51.9344 11.1419 51.9344 11.1416 51.9344 11.1414C51.9344 11.1412 51.9344 11.141 51.9344 11.1408C51.9344 11.1406 51.9344 11.1403 51.9344 11.1401C51.9344 11.1399 51.9344 11.1397 51.9344 11.1395C51.9344 11.1393 51.9344 11.139 51.9344 11.1388C51.9344 11.1386 51.9344 11.1384 51.9344 11.1382C51.9344 11.138 51.9344 11.1377 51.9344 11.1375C51.9344 11.1373 51.9344 11.1371 51.9344 11.1369C51.9344 11.1367 51.9344 11.1364 51.9344 11.1362C51.9344 11.136 51.9344 11.1358 51.9344 11.1356C51.9344 11.1354 51.9344 11.1351 51.9344 11.1349C51.9344 11.1347 51.9344 11.1345 51.9344 11.1343C51.9344 11.1341 51.9344 11.1338 51.9344 11.1336C51.9344 11.1334 51.9344 11.1332 51.9344 11.133C51.9344 11.1328 51.9344 11.1325 51.9344 11.1323C51.9344 11.1321 51.9344 11.1319 51.9344 11.1317C51.9344 11.1315 51.9344 11.1312 51.9344 11.131C51.9344 11.1308 51.9344 11.1306 51.9344 11.1304C51.9344 11.1302 51.9344 11.13 51.9344 11.1297C51.9344 11.1295 51.9344 11.1293 51.9344 11.1291C51.9344 11.1289 51.9344 11.1287 51.9344 11.1285C51.9344 11.1282 51.9344 11.128 51.9344 11.1278C51.9344 11.1276 51.9344 11.1274 51.9344 11.1272C51.9344 11.1269 51.9344 11.1267 51.9344 11.1265C51.9344 11.1263 51.9344 11.1261 51.9344 11.1259C51.9344 11.1257 51.9344 11.1254 51.9344 11.1252C51.9344 11.125 51.9344 11.1248 51.9344 11.1246C51.9344 11.1244 51.9344 11.1242 51.9344 11.1239C51.9344 11.1237 51.9344 11.1235 51.9344 11.1233C51.9344 11.1231 51.9344 11.1229 51.9344 11.1227C51.9344 11.1224 51.9344 11.1222 51.9344 11.122C51.9344 11.1218 51.9344 11.1216 51.9344 11.1214C51.9344 11.1212 51.9344 11.121 51.9344 11.1207C51.9344 11.1205 51.9344 11.1203 51.9344 11.1201C51.9344 11.1199 51.9344 11.1197 51.9344 11.1195C51.9344 11.1192 51.9344 11.119 51.9344 11.1188C51.9344 11.1186 51.9344 11.1184 51.9344 11.1182C51.9344 11.118 51.9344 11.1178 51.9344 11.1175C51.9344 11.1173 51.9344 11.1171 51.9344 11.1169C51.9344 11.1167 51.9344 11.1165 51.9344 11.1163C51.9344 11.1161 51.9344 11.1158 51.9344 11.1156C51.9344 11.1154 51.9344 11.1152 51.9344 11.115C51.9344 11.1148 51.9344 11.1146 51.9344 11.1144C51.9344 11.1141 51.9344 11.1139 51.9344 11.1137C51.9344 11.1135 51.9344 11.1133 51.9344 11.1131C51.9344 11.1129 51.9344 11.1127 51.9344 11.1124C51.9344 11.1122 51.9344 11.112 51.9344 11.1118C51.9344 11.1116 51.9344 11.1114 51.9344 11.1112C51.9344 11.111 51.9344 11.1108 51.9344 11.1105C51.9344 11.1103 51.9344 11.1101 51.9344 11.1099C51.9344 11.1097 51.9344 11.1095 51.9344 11.1093C51.9344 11.1091 51.9344 11.1089 51.9344 11.1086C51.9344 11.1084 51.9344 11.1082 51.9344 11.108C51.9344 11.1078 51.9344 11.1076 51.9344 11.1074C51.9344 11.1072 51.9344 11.107 51.9344 11.1067C51.9344 11.1065 51.9344 11.1063 51.9344 11.1061C51.9344 11.1059 51.9344 11.1057 51.9344 11.1055C51.9344 11.1053 51.9344 11.1051 51.9344 11.1049C51.9344 11.1046 51.9344 11.1044 51.9344 11.1042C51.9344 11.104 51.9344 11.1038 51.9344 11.1036C51.9344 11.1034 51.9344 11.1032 51.9344 11.103C51.9344 11.1028 51.9344 11.1025 51.9344 11.1023C51.9344 11.1021 51.9344 11.1019 51.9344 11.1017C51.9344 11.1015 51.9344 11.1013 51.9344 11.1011C51.9344 11.1009 51.9344 11.1007 51.9344 11.1005C51.9344 11.1002 51.9344 11.1 51.9344 11.0998C51.9344 11.0996 51.9344 11.0994 51.9344 11.0992C51.9344 11.099 51.9344 11.0988 51.9344 11.0986C51.9344 11.0984 51.9344 11.0982 51.9344 11.0979C51.9344 11.0977 51.9344 11.0975 51.9344 11.0973C51.9344 11.0971 51.9344 11.0969 51.9344 11.0967C51.9344 11.0965 51.9344 11.0963 51.9344 11.0961C51.9344 11.0959 51.9344 11.0956 51.9344 11.0954C51.9344 11.0952 51.9344 11.095 51.9344 11.0948C51.9344 11.0946 51.9344 11.0944 51.9344 11.0942C51.9344 11.094 51.9344 11.0938 51.9344 11.0936C51.9344 11.0934 51.9344 11.0932 51.9344 11.0929C51.9344 11.0927 51.9344 11.0925 51.9344 11.0923C51.9344 11.0921 51.9344 11.0919 51.9344 11.0917C51.9344 11.0915 51.9344 11.0913 51.9344 11.0911C51.9344 11.0909 51.9344 11.0907 51.9344 11.0905C51.9344 11.0903 51.9344 11.09 51.9344 11.0898C51.9344 11.0896 51.9344 11.0894 51.9344 11.0892C51.9344 11.089 51.9344 11.0888 51.9344 11.0886C51.9344 11.0884 51.9344 11.0882 51.9344 11.088C51.9344 11.0878 51.9344 11.0876 51.9344 11.0874C51.9344 11.0872 51.9344 11.0869 51.9344 11.0867C51.9344 11.0865 51.9344 11.0863 51.9344 11.0861C51.9344 11.0859 51.9344 11.0857 51.9344 11.0855C51.9344 11.0853 51.9344 11.0851 51.9344 11.0849C51.9344 11.0847 51.9344 11.0845 51.9344 11.0843C51.9344 11.0841 51.9344 11.0839 51.9344 11.0836C51.9344 11.0834 51.9344 11.0832 51.9344 11.083C51.9344 11.0828 51.9344 11.0826 51.9344 11.0824C51.9344 11.0822 51.9344 11.082 51.9344 11.0818C51.9344 11.0816 51.9344 11.0814 51.9344 11.0812C51.9344 11.081 51.9344 11.0808 51.9344 11.0806C51.9344 11.0804 51.9344 11.0802 51.9344 11.08C51.9344 11.0798 51.9344 11.0795 51.9344 11.0793C51.9344 11.0791 51.9344 11.0789 51.9344 11.0787C51.9344 11.0785 51.9344 11.0783 51.9344 11.0781C51.9344 11.0779 51.9344 11.0777 51.9344 11.0775C51.9344 11.0773 51.9344 11.0771 51.9344 11.0769C51.9344 11.0767 51.9344 11.0765 51.9344 11.0763C51.9344 11.0761 51.9344 11.0759 51.9344 11.0757C51.9344 11.0755 51.9344 11.0753 51.9344 11.0751C51.9344 11.0748 51.9344 11.0746 51.9344 11.0744C51.9344 11.0742 51.9344 11.074 51.9344 11.0738C51.9344 11.0736 51.9344 11.0734 51.9344 11.0732C51.9344 11.073 51.9344 11.0728 51.9344 11.0726C51.9344 11.0724 51.9344 11.0722 51.9344 11.072H49.9344ZM49.9857 11.7522C49.9872 11.7566 49.9872 11.7579 49.987 11.7564C49.9867 11.7548 49.9864 11.7518 49.9864 11.748H51.9864C51.9864 11.5308 51.9499 11.3202 51.8831 11.1198L49.9857 11.7522ZM50.9864 10.748H43.3944V12.748H50.9864V10.748ZM44.3944 11.748C44.3944 9.94587 44.2221 8.47272 43.8029 7.42461L41.9459 8.16739C42.22 8.85262 42.3944 10.0141 42.3944 11.748H44.3944ZM43.8029 7.42461C43.2416 6.02136 41.9042 5.496 40.3784 5.496V7.496C41.4872 7.496 41.8139 7.83731 41.9459 8.16739L43.8029 7.42461ZM40.3784 5.496C39.3205 5.496 38.3782 5.83636 37.6713 6.59368L39.1334 7.95832C39.3973 7.67564 39.7722 7.496 40.3784 7.496V5.496ZM37.6467 6.62107C37.0113 7.3542 36.6446 8.46395 36.428 9.7636L38.4008 10.0924C38.6002 8.89605 38.8921 8.23779 39.1581 7.93093L37.6467 6.62107ZM36.4244 9.78658C36.2412 11.069 36.1544 12.8049 36.1544 14.972H38.1544C38.1544 12.8404 38.2409 11.2137 38.4043 10.0694L36.4244 9.78658ZM36.1544 14.972V19.288H38.1544V14.972H36.1544ZM38.0153 19.7967C38.3443 19.24 38.8638 18.779 39.6405 18.4338L38.8282 16.6062C37.7329 17.093 36.8658 17.8107 36.2934 18.7793L38.0153 19.7967ZM39.6283 18.4391C40.464 18.081 41.4457 17.8754 42.5901 17.8436L42.5346 15.8444C41.1831 15.8819 39.9461 16.127 38.8405 16.6009L39.6283 18.4391ZM42.5936 17.8435C44.6464 17.7794 46.1547 18.2462 47.2342 19.1269L48.4985 17.5771C46.9434 16.3085 44.9157 15.77 42.5311 15.8445L42.5936 17.8435ZM47.2567 19.1446C48.4226 20.0415 49.2872 21.3134 49.8245 23.0203L51.7322 22.4197C51.0909 20.3826 50.0141 18.7425 48.4761 17.5594L47.2567 19.1446ZM49.8262 23.0254C50.3781 24.7463 50.6624 26.7206 50.6624 28.96H52.6624C52.6624 26.5541 52.3573 24.3683 51.7306 22.4146L49.8262 23.0254ZM50.6624 28.96C50.6624 31.7232 50.3252 34.1503 49.6679 36.2537L51.5769 36.8503C52.3062 34.5163 52.6624 31.8821 52.6624 28.96H50.6624ZM49.6679 36.2537C49.0295 38.2967 47.963 39.8445 46.4864 40.952L47.6864 42.552C49.5378 41.1635 50.8286 39.2446 51.5769 36.8503L49.6679 36.2537ZM46.4891 40.95C45.0893 41.9924 43.0896 42.572 40.3784 42.572V44.572C43.3524 44.572 45.8248 43.9383 47.6836 42.554L46.4891 40.95ZM40.4824 38.592C41.5996 38.592 42.5808 38.1949 43.2233 37.2847L41.5894 36.1313C41.3999 36.3998 41.0985 36.592 40.4824 36.592V38.592ZM43.2007 37.3154C43.7964 36.5365 44.1307 35.5139 44.2822 34.34L42.2986 34.084C42.1727 35.0594 41.9177 35.7008 41.612 36.1006L43.2007 37.3154ZM44.2776 34.3712C44.4621 33.2277 44.5504 31.8713 44.5504 30.312H42.5504C42.5504 31.8034 42.4654 33.047 42.3031 34.0528L44.2776 34.3712ZM44.5504 30.312C44.5504 28.8341 44.4977 27.5352 44.3897 26.4197L42.399 26.6123C42.4991 27.6462 42.5504 28.8779 42.5504 30.312H44.5504ZM44.3924 26.4536C44.3163 25.235 44.0251 24.1614 43.4251 23.3305L41.8037 24.5015C42.105 24.9186 42.3338 25.5783 42.3963 26.5784L44.3924 26.4536ZM43.4251 23.3305C42.7246 22.3607 41.617 21.98 40.3784 21.98V23.98C41.2198 23.98 41.6028 24.2233 41.8037 24.5015L43.4251 23.3305ZM40.3784 21.98C39.745 21.98 39.1343 22.1168 38.5553 22.384L39.3934 24.2C39.7158 24.0512 40.0411 23.98 40.3784 23.98V21.98ZM38.5898 22.3689C38.0558 22.5914 37.5816 22.9065 37.1753 23.3129L38.5895 24.7271C38.8071 24.5095 39.0609 24.3393 39.359 24.2151L38.5898 22.3689ZM37.218 23.2726C36.8358 23.6123 36.5166 23.9928 36.2802 24.4184L38.0285 25.3896C38.1388 25.1912 38.3049 24.9823 38.5467 24.7674L37.218 23.2726ZM36.1544 24.904V31.612H38.1544V24.904H36.1544ZM36.1544 31.612C36.1544 32.7075 36.2457 33.7568 36.4311 34.7581L38.3977 34.3939C38.2364 33.5232 38.1544 32.5965 38.1544 31.612H36.1544ZM36.44 34.8009C36.6758 35.8226 37.0837 36.7121 37.7018 37.4185L39.207 36.1015C38.8544 35.6986 38.569 35.132 38.3888 34.3511L36.44 34.8009ZM37.7018 37.4185C38.4109 38.2289 39.3832 38.592 40.4824 38.592V36.592C39.8482 36.592 39.4685 36.4004 39.207 36.1015L37.7018 37.4185Z" fill="#312C21"/>
</svg>
