<svg width="52" height="44" viewBox="0 0 52 44" fill="none" xmlns="http://www.w3.org/2000/svg">
<path d="M5.852 42.168L5.322 43.016L5.852 42.168ZM2.108 37.904L1.19702 38.3165L1.20004 38.3231L2.108 37.904ZM2.056 6.236L2.97337 6.6341L2.97602 6.62786L2.056 6.236ZM5.748 1.868L6.278 2.716H6.278L5.748 1.868ZM18.436 1.868L17.8979 2.71096L17.906 2.716L18.436 1.868ZM22.128 6.236L21.208 6.62787L21.2107 6.63409L22.128 6.236ZM22.076 37.904L22.984 38.3231L22.987 38.3165L22.076 37.904ZM18.332 42.168L18.862 43.016L18.332 42.168ZM14.172 35.772L13.355 35.1953L14.172 35.772ZM15.004 33.692L15.9892 33.8633L15.9904 33.8564L15.004 33.692ZM15.004 10.448L14.0117 10.572L14.0143 10.5923L14.0176 10.6124L15.004 10.448ZM14.224 8.316L13.3919 8.8707L13.3993 8.88179L13.407 8.89268L14.224 8.316ZM10.012 8.316L9.20127 7.73047L9.19503 7.73932L10.012 8.316ZM9.18 10.448L8.19361 10.2836L8.19025 10.3037L8.18772 10.324L9.18 10.448ZM9.232 33.692L8.24558 33.8564L8.24679 33.8633L9.232 33.692ZM10.116 35.772L10.9104 35.1646L10.116 35.772ZM12.144 42.728C9.74728 42.728 7.84712 42.2357 6.382 41.32L5.322 43.016C7.18489 44.1803 9.47939 44.728 12.144 44.728V42.728ZM6.382 41.32C4.8851 40.3844 3.76742 39.1131 3.01596 37.4849L1.20004 38.3231C2.11258 40.3002 3.4909 41.8716 5.322 43.016L6.382 41.32ZM3.01895 37.4915C2.25553 35.8056 1.86 33.8358 1.86 31.56H-0.14C-0.14 34.0682 0.296466 36.3277 1.19705 38.3165L3.01895 37.4915ZM1.86 31.56V12.684H-0.14V31.56H1.86ZM1.86 12.684C1.86 10.3291 2.2415 8.32052 2.97334 6.63409L1.13866 5.83791C0.275837 7.82614 -0.14 10.1162 -0.14 12.684H1.86ZM2.97602 6.62786C3.69627 4.93685 4.79434 3.64328 6.278 2.716L5.218 1.02C3.37366 2.17271 2.0104 3.79115 1.13598 5.84414L2.97602 6.62786ZM6.278 2.716C7.73924 1.80272 9.67198 1.308 12.144 1.308V-0.692001C9.41603 -0.692001 7.08476 -0.146723 5.218 1.02L6.278 2.716ZM12.144 1.308C14.5796 1.308 16.474 1.80199 17.898 2.71092L18.974 1.02508C17.1394 -0.145994 14.839 -0.692001 12.144 -0.692001V1.308ZM17.906 2.716C19.3897 3.64328 20.4877 4.93685 21.208 6.62786L23.048 5.84414C22.1736 3.79115 20.8103 2.17271 18.966 1.02L17.906 2.716ZM21.2107 6.63409C21.9425 8.32052 22.324 10.3291 22.324 12.684H24.324C24.324 10.1162 23.9082 7.82614 23.0453 5.83791L21.2107 6.63409ZM22.324 12.684V31.56H24.324V12.684H22.324ZM22.324 31.56C22.324 33.8358 21.9285 35.8056 21.165 37.4915L22.987 38.3165C23.8875 36.3277 24.324 34.0682 24.324 31.56H22.324ZM21.168 37.4849C20.4166 39.1131 19.2989 40.3844 17.802 41.32L18.862 43.016C20.6931 41.8716 22.0714 40.3002 22.984 38.3231L21.168 37.4849ZM17.802 41.32C16.3328 42.2382 14.4653 42.728 12.144 42.728V44.728C14.7454 44.728 17.0032 44.1778 18.862 43.016L17.802 41.32ZM12.144 37.656C13.2979 37.656 14.3314 37.2803 14.989 36.3487L13.355 35.1953C13.1806 35.4424 12.8621 35.656 12.144 35.656V37.656ZM14.989 36.3487C15.5003 35.6243 15.8283 34.7887 15.9892 33.8633L14.0188 33.5207C13.9024 34.19 13.6757 34.741 13.355 35.1953L14.989 36.3487ZM15.9904 33.8564C16.1363 32.9813 16.212 32.1627 16.212 31.404H14.212C14.212 32.032 14.1491 32.7387 14.0176 33.5276L15.9904 33.8564ZM16.212 31.404V12.84H14.212V31.404H16.212ZM16.212 12.84C16.212 12.0168 16.1372 11.1643 15.9904 10.2836L14.0176 10.6124C14.1482 11.3957 14.212 12.1378 14.212 12.84H16.212ZM15.9963 10.324C15.8752 9.35555 15.566 8.48314 15.041 7.73932L13.407 8.89268C13.714 9.32752 13.9248 9.87645 14.0117 10.572L15.9963 10.324ZM15.0561 7.7613C14.4008 6.77844 13.3388 6.38 12.144 6.38V8.38C12.8905 8.38 13.2152 8.60555 13.3919 8.8707L15.0561 7.7613ZM12.144 6.38C10.9456 6.38 9.88868 6.77878 9.20132 7.73051L10.8227 8.90149C11.0367 8.60522 11.4011 8.38 12.144 8.38V6.38ZM9.19503 7.73932C8.67874 8.47073 8.35284 9.32818 8.19361 10.2836L10.1664 10.6124C10.2845 9.90382 10.5133 9.33993 10.829 8.89268L9.19503 7.73932ZM8.18772 10.324C8.07908 11.1931 8.024 12.032 8.024 12.84H10.024C10.024 12.1226 10.0729 11.3669 10.1723 10.572L8.18772 10.324ZM8.024 12.84V31.404H10.024V12.84H8.024ZM8.024 31.404C8.024 32.1627 8.09975 32.9813 8.24561 33.8564L10.2184 33.5276C10.0869 32.7387 10.024 32.032 10.024 31.404H8.024ZM8.24679 33.8633C8.41048 34.8046 8.76449 35.6509 9.32164 36.3794L10.9104 35.1646C10.5662 34.7145 10.3309 34.1741 10.2172 33.5207L8.24679 33.8633ZM9.32164 36.3794C10.0027 37.27 11.0059 37.656 12.144 37.656V35.656C11.4795 35.656 11.1307 35.4526 10.9104 35.1646L9.32164 36.3794ZM32.9944 42.012L32.4397 42.8441L32.4457 42.8481L32.4519 42.852L32.9944 42.012ZM29.4064 37.384L28.4628 37.7151L28.4653 37.7224L28.468 37.7297L29.4064 37.384ZM28.6784 27.4L29.6576 27.6026L28.6784 27.4ZM31.1224 22.46L30.3964 21.7723L30.3954 21.7734L31.1224 22.46ZM33.3064 20.848L33.7536 21.7424L35.2249 21.0068L33.8945 20.0393L33.3064 20.848ZM30.2904 17.364L29.4125 17.8428L29.419 17.8548L29.4259 17.8666L30.2904 17.364ZM28.9904 11.592L29.9903 11.5771L28.9904 11.592ZM30.1344 5.612L31.0362 6.04413L31.0396 6.03691L30.1344 5.612ZM33.7224 1.712L33.2303 0.841436L33.7224 1.712ZM45.5784 1.712L45.0781 2.5779L45.0863 2.58256L45.5784 1.712ZM49.1144 5.612L48.2021 6.0216L48.2053 6.02865L49.1144 5.612ZM50.2064 11.592L49.2065 11.5771V11.5773L50.2064 11.592ZM48.9064 17.416L48.0285 16.9371L48.0246 16.9443L48.9064 17.416ZM45.9424 20.848L45.3821 20.0197L43.9658 20.9778L45.4952 21.7424L45.9424 20.848ZM48.0744 22.46L47.3291 23.1268L47.3476 23.1475L47.3673 23.1671L48.0744 22.46ZM50.5704 27.4L49.5911 27.6026L49.5944 27.6187L49.5983 27.6346L50.5704 27.4ZM50.9344 30.624H49.9344V30.6377L49.9347 30.6514L50.9344 30.624ZM49.8944 37.384L48.9615 37.0239L48.9587 37.0311L48.956 37.0383L49.8944 37.384ZM46.3064 42.012L46.857 42.8468L46.8611 42.8441L46.3064 42.012ZM41.8864 36.604L42.7056 37.1775L41.8864 36.604ZM42.8224 34.056L41.8318 33.9194V33.9194L42.8224 34.056ZM43.0304 31.144L42.0309 31.1128L42.0304 31.1284V31.144H43.0304ZM42.8224 27.92L41.8311 28.0522L41.8333 28.0683L41.836 28.0844L42.8224 27.92ZM41.8864 25.372L42.6914 24.7788L41.8864 25.372ZM37.4144 25.372L36.6295 24.7524L36.6192 24.7654L36.6093 24.7788L37.4144 25.372ZM36.4264 27.92L35.44 27.7556L35.4377 27.7695L35.4358 27.7834L36.4264 27.92ZM36.4264 34.108L35.4351 34.2402L35.4358 34.2446L36.4264 34.108ZM37.3624 36.656L36.5431 37.2295L36.5597 37.253L36.5775 37.2756L37.3624 36.656ZM41.3144 17.052L40.5587 16.3971L40.5458 16.4119L40.5335 16.4273L41.3144 17.052ZM42.3024 14.816L41.3246 14.6065L42.3024 14.816ZM41.8864 7.796L40.9854 8.22981L40.9952 8.25019L41.0059 8.2701L41.8864 7.796ZM37.3104 7.796L36.4361 7.31031L36.4299 7.3219L37.3104 7.796ZM36.8424 14.816L35.8569 14.9859L35.8603 15.0058L35.8646 15.0255L36.8424 14.816ZM37.8304 17.052L37.0747 17.7069L37.0868 17.7209L37.0993 17.7343L37.8304 17.052ZM39.6504 42.624C36.9956 42.624 34.9867 42.1083 33.5369 41.172L32.4519 42.852C34.3301 44.0651 36.7585 44.624 39.6504 44.624V42.624ZM33.5491 41.18C32.0709 40.1945 31.0037 38.8269 30.3447 37.0383L28.468 37.7297C29.2651 39.8931 30.5899 41.6108 32.4397 42.8441L33.5491 41.18ZM30.35 37.0529C29.7008 35.2029 29.3664 33.0647 29.3664 30.624H27.3664C27.3664 33.2446 27.7253 35.6131 28.4628 37.7151L30.35 37.0529ZM29.3664 30.624C29.3664 29.5404 29.4649 28.5342 29.6576 27.6026L27.6991 27.1974C27.4759 28.2764 27.3664 29.4196 27.3664 30.624H29.3664ZM29.6576 27.6026C29.8499 26.6735 30.1353 25.8382 30.5088 25.0912L28.7199 24.1968C28.2614 25.1138 27.9229 26.1159 27.6991 27.1974L29.6576 27.6026ZM30.5088 25.0912C30.8847 24.3395 31.3327 23.6937 31.8494 23.1466L30.3954 21.7734C29.7334 22.4743 29.1761 23.2845 28.7199 24.1968L30.5088 25.0912ZM31.8483 23.1477C32.3901 22.5758 33.0232 22.1076 33.7536 21.7424L32.8592 19.9536C31.9256 20.4204 31.1026 21.0268 30.3964 21.7723L31.8483 23.1477ZM33.8945 20.0393C32.8847 19.3048 31.9666 18.2576 31.1549 16.8614L29.4259 17.8666C30.3474 19.4517 31.44 20.7272 32.7182 21.6567L33.8945 20.0393ZM31.1683 16.8851C30.4357 15.5421 30.0233 13.7899 29.9903 11.5771L27.9905 11.6069C28.0268 14.0394 28.4811 16.1352 29.4125 17.8428L31.1683 16.8851ZM29.9903 11.5771C29.9573 9.37 30.3207 7.53732 31.0362 6.04412L29.2326 5.17988C28.3534 7.01467 27.9541 9.16867 27.9905 11.6069L29.9903 11.5771ZM31.0396 6.03691C31.7511 4.52115 32.805 3.37917 34.2144 2.58256L33.2303 0.841436C31.4504 1.84749 30.1123 3.30551 29.2291 5.18709L31.0396 6.03691ZM34.2144 2.58256C35.6219 1.78705 37.4171 1.36 39.6504 1.36V-0.640003C37.1689 -0.640003 35.0122 -0.16572 33.2303 0.841436L34.2144 2.58256ZM39.6504 1.36C41.9225 1.36 43.7121 1.78861 45.0781 2.57786L46.0787 0.846134C44.3247 -0.167286 42.1623 -0.640003 39.6504 -0.640003V1.36ZM45.0863 2.58256C46.4921 3.37712 47.5252 4.514 48.2021 6.02159L50.0266 5.20241C49.1782 3.31267 47.854 1.84954 46.0704 0.841436L45.0863 2.58256ZM48.2053 6.02865C48.8916 7.52602 49.2395 9.36444 49.2065 11.5771L51.2063 11.6069C51.2426 9.17423 50.8625 7.02598 50.0234 5.19534L48.2053 6.02865ZM49.2065 11.5773C49.1734 13.8276 48.76 15.596 48.0285 16.9371L49.7843 17.8949C50.7167 16.1853 51.17 14.0711 51.2063 11.6067L49.2065 11.5773ZM48.0246 16.9443C47.2895 18.3186 46.4031 19.329 45.3821 20.0197L46.5027 21.6763C47.839 20.7723 48.9286 19.4947 49.7882 17.8877L48.0246 16.9443ZM45.4952 21.7424C46.2204 22.105 46.8283 22.567 47.3291 23.1268L48.8196 21.7932C48.1418 21.0357 47.3284 20.423 46.3896 19.9536L45.4952 21.7424ZM47.3673 23.1671C47.9112 23.7111 48.3694 24.3501 48.7399 25.0912L50.5288 24.1968C50.0674 23.2739 49.4855 22.4569 48.7815 21.7529L47.3673 23.1671ZM48.7399 25.0912C49.1134 25.8382 49.3989 26.6735 49.5911 27.6026L51.5496 27.1974C51.3259 26.1159 50.9873 25.1138 50.5288 24.1968L48.7399 25.0912ZM49.5983 27.6346C49.8206 28.5555 49.9344 29.5508 49.9344 30.624H51.9344C51.9344 29.4092 51.8055 28.2552 51.5425 27.1654L49.5983 27.6346ZM49.9347 30.6514C50.0012 33.0751 49.6681 35.193 48.9615 37.0239L50.8273 37.7441C51.646 35.623 52.0063 33.2343 51.934 30.5966L49.9347 30.6514ZM48.956 37.0383C48.2971 38.8269 47.2299 40.1945 45.7517 41.18L46.8611 42.8441C48.7109 41.6108 50.0357 39.8931 50.8327 37.7297L48.956 37.0383ZM45.7558 41.1772C44.3469 42.1065 42.3444 42.624 39.6504 42.624V44.624C42.5723 44.624 45.0072 44.0668 46.857 42.8468L45.7558 41.1772ZM39.6504 38.644C40.912 38.644 41.9963 38.1908 42.7056 37.1775L41.0671 36.0305C40.8058 36.4039 40.3994 36.644 39.6504 36.644V38.644ZM42.7056 37.1775C43.2983 36.3307 43.6569 35.3241 43.813 34.1926L41.8318 33.9194C41.7105 34.7986 41.4451 35.4906 41.0671 36.0305L42.7056 37.1775ZM43.813 34.1926C43.9574 33.1458 44.0304 32.1293 44.0304 31.144H42.0304C42.0304 32.0307 41.9647 32.9556 41.8318 33.9194L43.813 34.1926ZM44.0299 31.1752C44.0665 30.0038 43.9934 28.8635 43.8088 27.7556L41.836 28.0844C41.998 29.0565 42.0636 30.0655 42.0309 31.1128L44.0299 31.1752ZM43.8136 27.7878C43.6588 26.6269 43.301 25.606 42.6914 24.7788L41.0813 25.9652C41.4425 26.4553 41.7086 27.1331 41.8311 28.0522L43.8136 27.7878ZM42.6914 24.7788C41.9741 23.8052 40.8921 23.384 39.6504 23.384V25.384C40.4193 25.384 40.828 25.6214 41.0813 25.9652L42.6914 24.7788ZM39.6504 23.384C38.4277 23.384 37.3703 23.814 36.6295 24.7524L38.1993 25.9916C38.4985 25.6126 38.9317 25.384 39.6504 25.384V23.384ZM36.6093 24.7788C36.0077 25.5953 35.632 26.6038 35.44 27.7556L37.4128 28.0844C37.5675 27.1562 37.8504 26.466 38.2194 25.9652L36.6093 24.7788ZM35.4358 27.7834C35.2901 28.8392 35.2184 29.9599 35.2184 31.144H37.2184C37.2184 30.0401 37.2853 29.0114 37.417 28.0566L35.4358 27.7834ZM35.2184 31.144C35.2184 32.1291 35.2913 33.1615 35.4351 34.2402L37.4176 33.9758C37.2841 32.9745 37.2184 32.0309 37.2184 31.144H35.2184ZM35.4358 34.2446C35.5918 35.3761 35.9504 36.3827 36.5431 37.2295L38.1816 36.0825C37.8036 35.5426 37.5383 34.8506 37.417 33.9714L35.4358 34.2446ZM36.5775 37.2756C37.3254 38.2229 38.4065 38.644 39.6504 38.644V36.644C38.8836 36.644 38.4394 36.4064 38.1473 36.0364L36.5775 37.2756ZM39.6504 18.832C40.633 18.832 41.4806 18.445 42.0952 17.6767L40.5335 16.4273C40.3161 16.699 40.0544 16.832 39.6504 16.832V18.832ZM42.0701 17.7069C42.6693 17.0155 43.0515 16.0927 43.2802 15.0255L41.3246 14.6065C41.1373 15.4806 40.8608 16.0485 40.5587 16.3971L42.0701 17.7069ZM43.2802 15.0255C43.5068 13.9678 43.6144 12.7504 43.6144 11.384H41.6144C41.6144 12.6523 41.5139 13.7228 41.3246 14.6065L43.2802 15.0255ZM43.6144 11.384C43.6144 9.79813 43.3583 8.42031 42.7668 7.3219L41.0059 8.2701C41.3851 8.97435 41.6144 9.98854 41.6144 11.384H43.6144ZM42.7874 7.36218C42.4953 6.75551 42.0802 6.24714 41.5211 5.89611C40.9622 5.54511 40.3239 5.392 39.6504 5.392V7.392C40.0169 7.392 40.2713 7.47288 40.4576 7.58989C40.6439 7.70685 40.8268 7.90049 40.9854 8.22981L42.7874 7.36218ZM39.6504 5.392C38.9756 5.392 38.3375 5.54551 37.7709 5.8855C37.2057 6.2246 36.7662 6.71635 36.4362 7.31035L38.1845 8.28164C38.3745 7.93964 38.585 7.72939 38.7999 7.60049C39.0132 7.47248 39.2851 7.392 39.6504 7.392V5.392ZM36.4299 7.3219C35.84 8.41747 35.5824 9.77615 35.5824 11.332H37.5824C37.5824 9.97585 37.8101 8.97719 38.1908 8.2701L36.4299 7.3219ZM35.5824 11.332C35.5824 12.6908 35.6716 13.911 35.8569 14.9859L37.8278 14.6461C37.6665 13.7103 37.5824 12.6079 37.5824 11.332H35.5824ZM35.8646 15.0255C36.0933 16.0927 36.4755 17.0156 37.0747 17.7069L38.5861 16.3971C38.2839 16.0485 38.0075 15.4806 37.8202 14.6065L35.8646 15.0255ZM37.0993 17.7343C37.7788 18.4623 38.6526 18.832 39.6504 18.832V16.832C39.1922 16.832 38.8527 16.6817 38.5614 16.3697L37.0993 17.7343Z" fill="#312C21"/>
</svg>
